<svg width="1324" height="161" viewBox="0 0 1324 161" fill="none" xmlns="http://www.w3.org/2000/svg">
<path d="M1214.34 117.384V123H1197.54V117.384H1203.03V101.199C1202.75 101.589 1202.23 102.057 1201.47 102.603C1200.72 103.123 1199.9 103.578 1199.02 103.968C1198.13 104.358 1197.34 104.553 1196.64 104.553V98.82C1197.34 98.82 1198.06 98.638 1198.78 98.274C1199.54 97.91 1200.23 97.494 1200.85 97.026C1201.47 96.532 1201.98 96.103 1202.37 95.739C1202.79 95.349 1203.01 95.128 1203.03 95.076H1209.39V117.384H1214.34ZM1225.6 123.234C1223.49 123.234 1221.65 122.896 1220.06 122.22C1218.47 121.518 1217.19 120.53 1216.2 119.256L1219.44 114.849C1220.01 115.577 1220.78 116.201 1221.74 116.721C1222.73 117.241 1223.92 117.501 1225.33 117.501C1226.78 117.501 1227.9 117.228 1228.68 116.682C1229.49 116.136 1229.89 115.343 1229.89 114.303C1229.89 112.015 1227.87 110.871 1223.84 110.871H1222.6V106.386H1223.92C1225.51 106.386 1226.78 106.1 1227.74 105.528C1228.71 104.956 1229.19 104.15 1229.19 103.11C1229.19 102.226 1228.85 101.537 1228.17 101.043C1227.52 100.549 1226.7 100.302 1225.72 100.302C1224.57 100.302 1223.54 100.575 1222.63 101.121C1221.75 101.667 1221.04 102.408 1220.49 103.344L1216.47 98.742C1217.07 97.988 1217.88 97.338 1218.89 96.792C1219.93 96.22 1221.09 95.778 1222.36 95.466C1223.64 95.154 1224.95 94.998 1226.3 94.998C1228.2 94.998 1229.86 95.297 1231.29 95.895C1232.72 96.493 1233.84 97.325 1234.65 98.391C1235.45 99.457 1235.86 100.692 1235.86 102.096C1235.86 103.63 1235.37 104.982 1234.41 106.152C1233.48 107.296 1232.24 108.037 1230.71 108.375C1232.37 108.661 1233.72 109.454 1234.76 110.754C1235.83 112.054 1236.36 113.601 1236.36 115.395C1236.36 117.033 1235.91 118.437 1235 119.607C1234.09 120.777 1232.83 121.674 1231.21 122.298C1229.6 122.922 1227.73 123.234 1225.6 123.234ZM1251.8 123.39C1249.8 123.39 1248.03 122.961 1246.5 122.103C1244.97 121.219 1243.68 120.088 1242.64 118.71C1241.63 117.306 1240.86 115.785 1240.34 114.147C1239.82 112.509 1239.56 110.91 1239.56 109.35C1239.56 107.686 1239.83 106.022 1240.38 104.358C1240.95 102.694 1241.77 101.186 1242.83 99.834C1243.9 98.456 1245.19 97.364 1246.7 96.558C1248.2 95.726 1249.91 95.31 1251.8 95.31C1253.83 95.31 1255.61 95.752 1257.15 96.636C1258.68 97.52 1259.96 98.664 1260.97 100.068C1262.01 101.472 1262.79 102.993 1263.31 104.631C1263.83 106.269 1264.09 107.842 1264.09 109.35C1264.09 111.04 1263.8 112.717 1263.23 114.381C1262.69 116.019 1261.88 117.527 1260.81 118.905C1259.75 120.257 1258.45 121.349 1256.91 122.181C1255.41 122.987 1253.7 123.39 1251.8 123.39ZM1246.03 109.35C1246.03 110.312 1246.15 111.287 1246.38 112.275C1246.62 113.263 1246.97 114.173 1247.44 115.005C1247.9 115.811 1248.5 116.461 1249.23 116.955C1249.96 117.449 1250.82 117.696 1251.8 117.696C1252.84 117.696 1253.73 117.436 1254.46 116.916C1255.21 116.37 1255.81 115.681 1256.25 114.849C1256.72 113.991 1257.06 113.081 1257.26 112.119C1257.5 111.157 1257.62 110.234 1257.62 109.35C1257.62 108.388 1257.5 107.413 1257.26 106.425C1257.03 105.437 1256.67 104.54 1256.17 103.734C1255.7 102.902 1255.11 102.239 1254.38 101.745C1253.65 101.251 1252.79 101.004 1251.8 101.004C1250.79 101.004 1249.91 101.277 1249.15 101.823C1248.42 102.343 1247.83 103.032 1247.36 103.89C1246.92 104.722 1246.58 105.619 1246.34 106.581C1246.14 107.543 1246.03 108.466 1246.03 109.35ZM1290.1 123V106.503L1284.14 118.515H1280.63L1274.66 106.503V123H1268.26V95.31H1275.21L1282.38 109.779L1289.6 95.31H1296.5V123H1290.1ZM1313.95 106.659V111.651H1310.24V115.707H1304.63V111.651H1300.96V106.659H1304.63V102.603H1310.24V106.659H1313.95Z" fill="#F95C19"/>
<path d="M1193.07 152.34C1193.07 153.14 1192.87 153.813 1192.45 154.36C1192.04 154.893 1191.48 155.3 1190.77 155.58C1190.08 155.86 1189.32 156 1188.49 156H1181.63V141.8H1189.23C1189.9 141.8 1190.47 141.98 1190.95 142.34C1191.43 142.687 1191.81 143.14 1192.07 143.7C1192.34 144.26 1192.47 144.833 1192.47 145.42C1192.47 146.113 1192.3 146.767 1191.95 147.38C1191.61 147.98 1191.1 148.427 1190.43 148.72C1191.25 148.96 1191.89 149.393 1192.35 150.02C1192.83 150.647 1193.07 151.42 1193.07 152.34ZM1184.39 144.16V147.74H1188.07C1188.53 147.74 1188.92 147.58 1189.25 147.26C1189.59 146.94 1189.75 146.5 1189.75 145.94C1189.75 145.407 1189.6 144.98 1189.29 144.66C1189 144.327 1188.63 144.16 1188.19 144.16H1184.39ZM1190.29 151.82C1190.29 151.3 1190.13 150.853 1189.81 150.48C1189.49 150.107 1189.1 149.92 1188.63 149.92H1184.39V153.66H1188.49C1189 153.66 1189.43 153.48 1189.77 153.12C1190.12 152.76 1190.29 152.327 1190.29 151.82ZM1194.83 152.08V145.52H1197.51V151.5C1197.51 153.113 1198.09 153.92 1199.25 153.92C1199.77 153.92 1200.27 153.767 1200.75 153.46C1201.24 153.14 1201.64 152.66 1201.95 152.02V145.52H1204.63V153C1204.63 153.293 1204.68 153.5 1204.77 153.62C1204.86 153.727 1205.03 153.793 1205.27 153.82V156C1205 156.053 1204.78 156.087 1204.59 156.1C1204.42 156.113 1204.26 156.12 1204.11 156.12C1203.63 156.12 1203.24 156.013 1202.93 155.8C1202.64 155.573 1202.46 155.267 1202.41 154.88L1202.35 154.04C1201.88 154.76 1201.28 155.3 1200.55 155.66C1199.82 156.02 1199.01 156.2 1198.13 156.2C1197.05 156.2 1196.23 155.853 1195.67 155.16C1195.11 154.453 1194.83 153.427 1194.83 152.08ZM1211.15 156.2C1210.26 156.2 1209.41 156.053 1208.59 155.76C1207.78 155.467 1207.08 155.033 1206.49 154.46L1207.45 152.72C1208.08 153.227 1208.69 153.6 1209.29 153.84C1209.89 154.08 1210.48 154.2 1211.05 154.2C1211.57 154.2 1211.99 154.107 1212.29 153.92C1212.61 153.733 1212.77 153.453 1212.77 153.08C1212.77 152.693 1212.58 152.433 1212.19 152.3C1211.81 152.153 1211.27 151.973 1210.57 151.76C1209.8 151.52 1209.15 151.273 1208.63 151.02C1208.11 150.767 1207.72 150.46 1207.45 150.1C1207.2 149.74 1207.07 149.273 1207.07 148.7C1207.07 147.673 1207.46 146.853 1208.23 146.24C1209.01 145.627 1210.03 145.32 1211.31 145.32C1212.06 145.32 1212.77 145.44 1213.43 145.68C1214.1 145.907 1214.71 146.28 1215.25 146.8L1214.17 148.5C1213.15 147.7 1212.15 147.3 1211.19 147.3C1210.77 147.3 1210.39 147.38 1210.05 147.54C1209.73 147.7 1209.57 147.98 1209.57 148.38C1209.57 148.753 1209.73 149.02 1210.03 149.18C1210.35 149.34 1210.83 149.513 1211.47 149.7C1212.3 149.953 1213 150.2 1213.57 150.44C1214.16 150.68 1214.6 150.987 1214.89 151.36C1215.2 151.733 1215.35 152.24 1215.35 152.88C1215.35 153.92 1214.97 154.733 1214.21 155.32C1213.45 155.907 1212.43 156.2 1211.15 156.2ZM1217.18 144.06V141.4H1219.86V144.06H1217.18ZM1217.18 156V145.52H1219.86V156H1217.18ZM1232.01 156H1229.33V150.12C1229.33 149.28 1229.19 148.667 1228.89 148.28C1228.6 147.893 1228.19 147.7 1227.67 147.7C1227.31 147.7 1226.95 147.793 1226.57 147.98C1226.21 148.167 1225.89 148.427 1225.59 148.76C1225.3 149.08 1225.09 149.453 1224.95 149.88V156H1222.27V145.52H1224.69V147.46C1225.08 146.807 1225.64 146.293 1226.37 145.92C1227.11 145.533 1227.93 145.34 1228.85 145.34C1229.51 145.34 1230.04 145.46 1230.45 145.7C1230.87 145.927 1231.19 146.24 1231.41 146.64C1231.64 147.027 1231.79 147.467 1231.87 147.96C1231.97 148.453 1232.01 148.953 1232.01 149.46V156ZM1239.2 156.2C1238.07 156.2 1237.09 155.953 1236.26 155.46C1235.45 154.967 1234.82 154.313 1234.36 153.5C1233.91 152.673 1233.68 151.78 1233.68 150.82C1233.68 149.833 1233.9 148.927 1234.34 148.1C1234.8 147.26 1235.44 146.593 1236.26 146.1C1237.09 145.593 1238.08 145.34 1239.22 145.34C1240.37 145.34 1241.35 145.593 1242.16 146.1C1242.98 146.593 1243.6 147.253 1244.02 148.08C1244.46 148.893 1244.68 149.773 1244.68 150.72C1244.68 151.067 1244.66 151.367 1244.62 151.62H1236.52C1236.59 152.433 1236.89 153.073 1237.42 153.54C1237.97 154.007 1238.6 154.24 1239.3 154.24C1239.84 154.24 1240.34 154.113 1240.8 153.86C1241.28 153.593 1241.61 153.247 1241.78 152.82L1244.08 153.46C1243.7 154.26 1243.08 154.92 1242.22 155.44C1241.37 155.947 1240.36 156.2 1239.2 156.2ZM1236.46 149.92H1241.94C1241.86 149.133 1241.56 148.5 1241.04 148.02C1240.54 147.527 1239.92 147.28 1239.18 147.28C1238.46 147.28 1237.84 147.527 1237.32 148.02C1236.82 148.5 1236.53 149.133 1236.46 149.92ZM1250.18 156.2C1249.28 156.2 1248.43 156.053 1247.62 155.76C1246.8 155.467 1246.1 155.033 1245.52 154.46L1246.48 152.72C1247.1 153.227 1247.72 153.6 1248.32 153.84C1248.92 154.08 1249.5 154.2 1250.08 154.2C1250.6 154.2 1251.01 154.107 1251.32 153.92C1251.64 153.733 1251.8 153.453 1251.8 153.08C1251.8 152.693 1251.6 152.433 1251.22 152.3C1250.83 152.153 1250.29 151.973 1249.6 151.76C1248.82 151.52 1248.18 151.273 1247.66 151.02C1247.14 150.767 1246.74 150.46 1246.48 150.1C1246.22 149.74 1246.1 149.273 1246.1 148.7C1246.1 147.673 1246.48 146.853 1247.26 146.24C1248.03 145.627 1249.06 145.32 1250.34 145.32C1251.08 145.32 1251.79 145.44 1252.46 145.68C1253.12 145.907 1253.73 146.28 1254.28 146.8L1253.2 148.5C1252.17 147.7 1251.18 147.3 1250.22 147.3C1249.79 147.3 1249.41 147.38 1249.08 147.54C1248.76 147.7 1248.6 147.98 1248.6 148.38C1248.6 148.753 1248.75 149.02 1249.06 149.18C1249.38 149.34 1249.86 149.513 1250.5 149.7C1251.32 149.953 1252.02 150.2 1252.6 150.44C1253.18 150.68 1253.62 150.987 1253.92 151.36C1254.22 151.733 1254.38 152.24 1254.38 152.88C1254.38 153.92 1254 154.733 1253.24 155.32C1252.48 155.907 1251.46 156.2 1250.18 156.2ZM1260.06 156.2C1259.17 156.2 1258.31 156.053 1257.5 155.76C1256.69 155.467 1255.99 155.033 1255.4 154.46L1256.36 152.72C1256.99 153.227 1257.6 153.6 1258.2 153.84C1258.8 154.08 1259.39 154.2 1259.96 154.2C1260.48 154.2 1260.89 154.107 1261.2 153.92C1261.52 153.733 1261.68 153.453 1261.68 153.08C1261.68 152.693 1261.49 152.433 1261.1 152.3C1260.71 152.153 1260.17 151.973 1259.48 151.76C1258.71 151.52 1258.06 151.273 1257.54 151.02C1257.02 150.767 1256.63 150.46 1256.36 150.1C1256.11 149.74 1255.98 149.273 1255.98 148.7C1255.98 147.673 1256.37 146.853 1257.14 146.24C1257.91 145.627 1258.94 145.32 1260.22 145.32C1260.97 145.32 1261.67 145.44 1262.34 145.68C1263.01 145.907 1263.61 146.28 1264.16 146.8L1263.08 148.5C1262.05 147.7 1261.06 147.3 1260.1 147.3C1259.67 147.3 1259.29 147.38 1258.96 147.54C1258.64 147.7 1258.48 147.98 1258.48 148.38C1258.48 148.753 1258.63 149.02 1258.94 149.18C1259.26 149.34 1259.74 149.513 1260.38 149.7C1261.21 149.953 1261.91 150.2 1262.48 150.44C1263.07 150.68 1263.51 150.987 1263.8 151.36C1264.11 151.733 1264.26 152.24 1264.26 152.88C1264.26 153.92 1263.88 154.733 1263.12 155.32C1262.36 155.907 1261.34 156.2 1260.06 156.2ZM1280.63 156H1277.95V150.12C1277.95 149.307 1277.79 148.7 1277.47 148.3C1277.16 147.9 1276.73 147.7 1276.19 147.7C1275.85 147.7 1275.51 147.793 1275.15 147.98C1274.8 148.167 1274.48 148.427 1274.19 148.76C1273.91 149.08 1273.7 149.453 1273.57 149.88V156H1270.89V141.4H1273.57V147.46C1273.95 146.793 1274.48 146.273 1275.15 145.9C1275.81 145.527 1276.54 145.34 1277.33 145.34C1278.22 145.34 1278.91 145.54 1279.39 145.94C1279.87 146.34 1280.19 146.853 1280.37 147.48C1280.54 148.107 1280.63 148.767 1280.63 149.46V156ZM1287.8 156.2C1286.65 156.2 1285.66 155.953 1284.84 155.46C1284.02 154.953 1283.4 154.287 1282.96 153.46C1282.52 152.633 1282.3 151.74 1282.3 150.78C1282.3 149.807 1282.52 148.907 1282.96 148.08C1283.41 147.253 1284.04 146.593 1284.86 146.1C1285.68 145.593 1286.66 145.34 1287.8 145.34C1288.93 145.34 1289.9 145.593 1290.72 146.1C1291.54 146.593 1292.18 147.253 1292.62 148.08C1293.06 148.907 1293.28 149.807 1293.28 150.78C1293.28 151.74 1293.06 152.633 1292.62 153.46C1292.18 154.287 1291.54 154.953 1290.72 155.46C1289.9 155.953 1288.93 156.2 1287.8 156.2ZM1285.06 150.78C1285.06 151.393 1285.18 151.94 1285.42 152.42C1285.66 152.887 1285.98 153.253 1286.4 153.52C1286.81 153.787 1287.28 153.92 1287.8 153.92C1288.3 153.92 1288.76 153.787 1289.18 153.52C1289.59 153.24 1289.92 152.867 1290.16 152.4C1290.41 151.92 1290.54 151.373 1290.54 150.76C1290.54 150.16 1290.41 149.627 1290.16 149.16C1289.92 148.68 1289.59 148.307 1289.18 148.04C1288.76 147.76 1288.3 147.62 1287.8 147.62C1287.28 147.62 1286.81 147.76 1286.4 148.04C1285.98 148.307 1285.66 148.68 1285.42 149.16C1285.18 149.627 1285.06 150.167 1285.06 150.78ZM1294.99 152.08V145.52H1297.67V151.5C1297.67 153.113 1298.25 153.92 1299.41 153.92C1299.93 153.92 1300.43 153.767 1300.91 153.46C1301.4 153.14 1301.8 152.66 1302.11 152.02V145.52H1304.79V153C1304.79 153.293 1304.83 153.5 1304.93 153.62C1305.02 153.727 1305.19 153.793 1305.43 153.82V156C1305.16 156.053 1304.93 156.087 1304.75 156.1C1304.57 156.113 1304.41 156.12 1304.27 156.12C1303.79 156.12 1303.39 156.013 1303.09 155.8C1302.79 155.573 1302.62 155.267 1302.57 154.88L1302.51 154.04C1302.04 154.76 1301.44 155.3 1300.71 155.66C1299.97 156.02 1299.17 156.2 1298.29 156.2C1297.21 156.2 1296.39 155.853 1295.83 155.16C1295.27 154.453 1294.99 153.427 1294.99 152.08ZM1313.69 147.84C1312.88 147.84 1312.15 148 1311.51 148.32C1310.87 148.627 1310.41 149.073 1310.13 149.66V156H1307.45V145.52H1309.91V147.76C1310.27 147.04 1310.74 146.473 1311.31 146.06C1311.9 145.647 1312.51 145.42 1313.15 145.38C1313.43 145.38 1313.61 145.387 1313.69 145.4V147.84ZM1319.04 156.2C1318.15 156.2 1317.3 156.053 1316.48 155.76C1315.67 155.467 1314.97 155.033 1314.38 154.46L1315.34 152.72C1315.97 153.227 1316.58 153.6 1317.18 153.84C1317.78 154.08 1318.37 154.2 1318.94 154.2C1319.46 154.2 1319.88 154.107 1320.18 153.92C1320.5 153.733 1320.66 153.453 1320.66 153.08C1320.66 152.693 1320.47 152.433 1320.08 152.3C1319.7 152.153 1319.16 151.973 1318.46 151.76C1317.69 151.52 1317.04 151.273 1316.52 151.02C1316 150.767 1315.61 150.46 1315.34 150.1C1315.09 149.74 1314.96 149.273 1314.96 148.7C1314.96 147.673 1315.35 146.853 1316.12 146.24C1316.9 145.627 1317.92 145.32 1319.2 145.32C1319.95 145.32 1320.66 145.44 1321.32 145.68C1321.99 145.907 1322.6 146.28 1323.14 146.8L1322.06 148.5C1321.04 147.7 1320.04 147.3 1319.08 147.3C1318.66 147.3 1318.28 147.38 1317.94 147.54C1317.62 147.7 1317.46 147.98 1317.46 148.38C1317.46 148.753 1317.62 149.02 1317.92 149.18C1318.24 149.34 1318.72 149.513 1319.36 149.7C1320.19 149.953 1320.89 150.2 1321.46 150.44C1322.05 150.68 1322.49 150.987 1322.78 151.36C1323.09 151.733 1323.24 152.24 1323.24 152.88C1323.24 153.92 1322.86 154.733 1322.1 155.32C1321.34 155.907 1320.32 156.2 1319.04 156.2Z" fill="#464558"/>
<g clip-path="url(#clip0_338_19)">
<path d="M1249.52 46H1256.57V41.3333H1249.52V46ZM1258.93 39V46.2333C1258.93 47.3931 1257.98 48.3333 1256.81 48.3333H1249.28C1248.12 48.3333 1247.17 47.3931 1247.17 46.2333V39H1258.93ZM1242.46 27.3333V23.8333C1242.46 20.6117 1245.1 18 1248.34 18H1257.75C1261 18 1263.63 20.6117 1263.63 23.8333V27.3333H1242.46ZM1261.28 25V23.8333C1261.28 21.9003 1259.7 20.3333 1257.75 20.3333H1248.34C1246.4 20.3333 1244.82 21.9003 1244.82 23.8333V25H1261.28Z" fill="#222132"/>
<path d="M1275.39 40.1672C1274.41 40.8995 1273.18 41.3335 1271.86 41.3335H1234.23C1232.91 41.3335 1231.69 40.8995 1230.71 40.1672V51.8335C1230.71 55.0551 1233.34 57.6668 1236.58 57.6668H1269.51C1272.76 57.6668 1275.39 55.0551 1275.39 51.8335V40.1672ZM1231.88 25.0001H1274.21C1276.16 25.0001 1277.74 26.5671 1277.74 28.5001V51.8335C1277.74 56.3438 1274.05 60.0001 1269.51 60.0001H1236.58C1232.04 60.0001 1228.35 56.3438 1228.35 51.8335V28.5001C1228.35 26.5671 1229.93 25.0001 1231.88 25.0001ZM1231.88 27.3335C1231.23 27.3335 1230.71 27.8558 1230.71 28.5001V35.5001C1230.71 37.4331 1232.29 39.0001 1234.23 39.0001H1271.86C1273.81 39.0001 1275.39 37.4331 1275.39 35.5001V28.5001C1275.39 27.8558 1274.86 27.3335 1274.21 27.3335H1231.88Z" fill="#222132"/>
</g>
<path d="M902.344 117.384V123H885.535V117.384H891.034V101.199C890.748 101.589 890.228 102.057 889.474 102.603C888.72 103.123 887.901 103.578 887.017 103.968C886.133 104.358 885.34 104.553 884.638 104.553V98.82C885.34 98.82 886.055 98.638 886.783 98.274C887.537 97.91 888.226 97.494 888.85 97.026C889.474 96.532 889.981 96.103 890.371 95.739C890.787 95.349 891.008 95.128 891.034 95.076H897.391V117.384H902.344ZM913.599 123.234C911.493 123.234 909.647 122.896 908.061 122.22C906.475 121.518 905.188 120.53 904.2 119.256L907.437 114.849C908.009 115.577 908.776 116.201 909.738 116.721C910.726 117.241 911.922 117.501 913.326 117.501C914.782 117.501 915.9 117.228 916.68 116.682C917.486 116.136 917.889 115.343 917.889 114.303C917.889 112.015 915.874 110.871 911.844 110.871H910.596V106.386H911.922C913.508 106.386 914.782 106.1 915.744 105.528C916.706 104.956 917.187 104.15 917.187 103.11C917.187 102.226 916.849 101.537 916.173 101.043C915.523 100.549 914.704 100.302 913.716 100.302C912.572 100.302 911.545 100.575 910.635 101.121C909.751 101.667 909.036 102.408 908.49 103.344L904.473 98.742C905.071 97.988 905.877 97.338 906.891 96.792C907.931 96.22 909.088 95.778 910.362 95.466C911.636 95.154 912.949 94.998 914.301 94.998C916.199 94.998 917.863 95.297 919.293 95.895C920.723 96.493 921.841 97.325 922.647 98.391C923.453 99.457 923.856 100.692 923.856 102.096C923.856 103.63 923.375 104.982 922.413 106.152C921.477 107.296 920.242 108.037 918.708 108.375C920.372 108.661 921.724 109.454 922.764 110.754C923.83 112.054 924.363 113.601 924.363 115.395C924.363 117.033 923.908 118.437 922.998 119.607C922.088 120.777 920.827 121.674 919.215 122.298C917.603 122.922 915.731 123.234 913.599 123.234ZM939.804 123.39C937.802 123.39 936.034 122.961 934.5 122.103C932.966 121.219 931.679 120.088 930.639 118.71C929.625 117.306 928.858 115.785 928.338 114.147C927.818 112.509 927.558 110.91 927.558 109.35C927.558 107.686 927.831 106.022 928.377 104.358C928.949 102.694 929.768 101.186 930.834 99.834C931.9 98.456 933.187 97.364 934.695 96.558C936.203 95.726 937.906 95.31 939.804 95.31C941.832 95.31 943.613 95.752 945.147 96.636C946.681 97.52 947.955 98.664 948.969 100.068C950.009 101.472 950.789 102.993 951.309 104.631C951.829 106.269 952.089 107.842 952.089 109.35C952.089 111.04 951.803 112.717 951.231 114.381C950.685 116.019 949.879 117.527 948.813 118.905C947.747 120.257 946.447 121.349 944.913 122.181C943.405 122.987 941.702 123.39 939.804 123.39ZM934.032 109.35C934.032 110.312 934.149 111.287 934.383 112.275C934.617 113.263 934.968 114.173 935.436 115.005C935.904 115.811 936.502 116.461 937.23 116.955C937.958 117.449 938.816 117.696 939.804 117.696C940.844 117.696 941.728 117.436 942.456 116.916C943.21 116.37 943.808 115.681 944.25 114.849C944.718 113.991 945.056 113.081 945.264 112.119C945.498 111.157 945.615 110.234 945.615 109.35C945.615 108.388 945.498 107.413 945.264 106.425C945.03 105.437 944.666 104.54 944.172 103.734C943.704 102.902 943.106 102.239 942.378 101.745C941.65 101.251 940.792 101.004 939.804 101.004C938.79 101.004 937.906 101.277 937.152 101.823C936.424 102.343 935.826 103.032 935.358 103.89C934.916 104.722 934.578 105.619 934.344 106.581C934.136 107.543 934.032 108.466 934.032 109.35ZM978.103 123V106.503L972.136 118.515H968.626L962.659 106.503V123H956.263V95.31H963.205L970.381 109.779L977.596 95.31H984.499V123H978.103ZM1001.95 106.659V111.651H998.241V115.707H992.625V111.651H988.959V106.659H992.625V102.603H998.241V106.659H1001.95Z" fill="#F95C19"/>
<path d="M870.023 156.1C869.089 156.1 868.216 155.913 867.403 155.54C866.589 155.167 865.869 154.653 865.243 154C864.629 153.333 864.149 152.56 863.803 151.68C863.456 150.8 863.283 149.847 863.283 148.82C863.283 147.847 863.456 146.933 863.803 146.08C864.149 145.213 864.636 144.453 865.263 143.8C865.889 143.147 866.623 142.633 867.463 142.26C868.303 141.887 869.216 141.7 870.203 141.7C871.523 141.7 872.663 141.987 873.623 142.56C874.583 143.12 875.303 143.867 875.783 144.8L873.723 146.32C873.363 145.627 872.856 145.093 872.203 144.72C871.563 144.333 870.863 144.14 870.103 144.14C869.303 144.14 868.596 144.36 867.983 144.8C867.383 145.24 866.909 145.82 866.563 146.54C866.229 147.26 866.063 148.047 866.063 148.9C866.063 149.793 866.243 150.6 866.603 151.32C866.963 152.04 867.456 152.613 868.083 153.04C868.723 153.453 869.449 153.66 870.263 153.66C871.636 153.66 872.876 153.013 873.983 151.72V150.72H871.123V148.7H876.263V156H873.983V154.4C872.836 155.533 871.516 156.1 870.023 156.1ZM883.195 156.2C882.048 156.2 881.061 155.953 880.235 155.46C879.421 154.953 878.795 154.287 878.355 153.46C877.915 152.633 877.695 151.74 877.695 150.78C877.695 149.807 877.915 148.907 878.355 148.08C878.808 147.253 879.441 146.593 880.255 146.1C881.081 145.593 882.061 145.34 883.195 145.34C884.328 145.34 885.301 145.593 886.115 146.1C886.941 146.593 887.575 147.253 888.015 148.08C888.455 148.907 888.675 149.807 888.675 150.78C888.675 151.74 888.455 152.633 888.015 153.46C887.575 154.287 886.941 154.953 886.115 155.46C885.301 155.953 884.328 156.2 883.195 156.2ZM880.455 150.78C880.455 151.393 880.575 151.94 880.815 152.42C881.055 152.887 881.381 153.253 881.795 153.52C882.208 153.787 882.675 153.92 883.195 153.92C883.701 153.92 884.161 153.787 884.575 153.52C884.988 153.24 885.315 152.867 885.555 152.4C885.808 151.92 885.935 151.373 885.935 150.76C885.935 150.16 885.808 149.627 885.555 149.16C885.315 148.68 884.988 148.307 884.575 148.04C884.161 147.76 883.701 147.62 883.195 147.62C882.675 147.62 882.208 147.76 881.795 148.04C881.381 148.307 881.055 148.68 880.815 149.16C880.575 149.627 880.455 150.167 880.455 150.78ZM895.324 156.2C894.177 156.2 893.19 155.953 892.364 155.46C891.55 154.953 890.924 154.287 890.484 153.46C890.044 152.633 889.824 151.74 889.824 150.78C889.824 149.807 890.044 148.907 890.484 148.08C890.937 147.253 891.57 146.593 892.384 146.1C893.21 145.593 894.19 145.34 895.324 145.34C896.457 145.34 897.43 145.593 898.244 146.1C899.07 146.593 899.704 147.253 900.144 148.08C900.584 148.907 900.804 149.807 900.804 150.78C900.804 151.74 900.584 152.633 900.144 153.46C899.704 154.287 899.07 154.953 898.244 155.46C897.43 155.953 896.457 156.2 895.324 156.2ZM892.584 150.78C892.584 151.393 892.704 151.94 892.944 152.42C893.184 152.887 893.51 153.253 893.924 153.52C894.337 153.787 894.804 153.92 895.324 153.92C895.83 153.92 896.29 153.787 896.704 153.52C897.117 153.24 897.444 152.867 897.684 152.4C897.937 151.92 898.064 151.373 898.064 150.76C898.064 150.16 897.937 149.627 897.684 149.16C897.444 148.68 897.117 148.307 896.704 148.04C896.29 147.76 895.83 147.62 895.324 147.62C894.804 147.62 894.337 147.76 893.924 148.04C893.51 148.307 893.184 148.68 892.944 149.16C892.704 149.627 892.584 150.167 892.584 150.78ZM901.973 150.76C901.973 149.76 902.173 148.847 902.573 148.02C902.973 147.193 903.526 146.54 904.233 146.06C904.939 145.58 905.746 145.34 906.653 145.34C907.426 145.34 908.119 145.533 908.733 145.92C909.359 146.293 909.846 146.773 910.193 147.36V141.4H912.873V153C912.873 153.293 912.919 153.5 913.013 153.62C913.106 153.727 913.266 153.793 913.493 153.82V156C913.013 156.093 912.633 156.14 912.353 156.14C911.873 156.14 911.473 156.02 911.153 155.78C910.846 155.54 910.673 155.227 910.633 154.84L910.593 154.18C910.206 154.833 909.679 155.333 909.013 155.68C908.359 156.027 907.673 156.2 906.953 156.2C905.979 156.2 905.119 155.96 904.373 155.48C903.626 154.987 903.039 154.333 902.613 153.52C902.186 152.693 901.973 151.773 901.973 150.76ZM910.193 152.16V149.66C909.979 149.073 909.613 148.587 909.093 148.2C908.573 147.813 908.039 147.62 907.493 147.62C906.946 147.62 906.466 147.773 906.053 148.08C905.639 148.373 905.319 148.767 905.093 149.26C904.866 149.74 904.753 150.26 904.753 150.82C904.753 151.393 904.879 151.92 905.133 152.4C905.386 152.867 905.726 153.24 906.153 153.52C906.593 153.787 907.093 153.92 907.653 153.92C908.159 153.92 908.659 153.753 909.153 153.42C909.659 153.087 910.006 152.667 910.193 152.16ZM919.363 156.2C918.47 156.2 917.617 156.053 916.803 155.76C915.99 155.467 915.29 155.033 914.703 154.46L915.663 152.72C916.29 153.227 916.903 153.6 917.503 153.84C918.103 154.08 918.69 154.2 919.263 154.2C919.783 154.2 920.197 154.107 920.503 153.92C920.823 153.733 920.983 153.453 920.983 153.08C920.983 152.693 920.79 152.433 920.403 152.3C920.017 152.153 919.477 151.973 918.783 151.76C918.01 151.52 917.363 151.273 916.843 151.02C916.323 150.767 915.93 150.46 915.663 150.1C915.41 149.74 915.283 149.273 915.283 148.7C915.283 147.673 915.67 146.853 916.443 146.24C917.217 145.627 918.243 145.32 919.523 145.32C920.27 145.32 920.977 145.44 921.643 145.68C922.31 145.907 922.917 146.28 923.463 146.8L922.383 148.5C921.357 147.7 920.363 147.3 919.403 147.3C918.977 147.3 918.597 147.38 918.263 147.54C917.943 147.7 917.783 147.98 917.783 148.38C917.783 148.753 917.937 149.02 918.243 149.18C918.563 149.34 919.043 149.513 919.683 149.7C920.51 149.953 921.21 150.2 921.783 150.44C922.37 150.68 922.81 150.987 923.103 151.36C923.41 151.733 923.563 152.24 923.563 152.88C923.563 153.92 923.183 154.733 922.423 155.32C921.663 155.907 920.643 156.2 919.363 156.2ZM929.551 150.76C929.551 149.76 929.751 148.847 930.151 148.02C930.551 147.193 931.104 146.54 931.811 146.06C932.517 145.58 933.324 145.34 934.231 145.34C935.004 145.34 935.697 145.533 936.311 145.92C936.937 146.293 937.424 146.773 937.771 147.36V141.4H940.451V153C940.451 153.293 940.497 153.5 940.591 153.62C940.684 153.727 940.844 153.793 941.071 153.82V156C940.591 156.093 940.211 156.14 939.931 156.14C939.451 156.14 939.051 156.02 938.731 155.78C938.424 155.54 938.251 155.227 938.211 154.84L938.171 154.18C937.784 154.833 937.257 155.333 936.591 155.68C935.937 156.027 935.251 156.2 934.531 156.2C933.557 156.2 932.697 155.96 931.951 155.48C931.204 154.987 930.617 154.333 930.191 153.52C929.764 152.693 929.551 151.773 929.551 150.76ZM937.771 152.16V149.66C937.557 149.073 937.191 148.587 936.671 148.2C936.151 147.813 935.617 147.62 935.071 147.62C934.524 147.62 934.044 147.773 933.631 148.08C933.217 148.373 932.897 148.767 932.671 149.26C932.444 149.74 932.331 150.26 932.331 150.82C932.331 151.393 932.457 151.92 932.711 152.4C932.964 152.867 933.304 153.24 933.731 153.52C934.171 153.787 934.671 153.92 935.231 153.92C935.737 153.92 936.237 153.753 936.731 153.42C937.237 153.087 937.584 152.667 937.771 152.16ZM947.941 156.2C946.808 156.2 945.828 155.953 945.001 155.46C944.188 154.967 943.555 154.313 943.101 153.5C942.648 152.673 942.421 151.78 942.421 150.82C942.421 149.833 942.641 148.927 943.081 148.1C943.535 147.26 944.175 146.593 945.001 146.1C945.828 145.593 946.815 145.34 947.961 145.34C949.108 145.34 950.088 145.593 950.901 146.1C951.715 146.593 952.335 147.253 952.761 148.08C953.201 148.893 953.421 149.773 953.421 150.72C953.421 151.067 953.401 151.367 953.361 151.62H945.261C945.328 152.433 945.628 153.073 946.161 153.54C946.708 154.007 947.335 154.24 948.041 154.24C948.575 154.24 949.075 154.113 949.541 153.86C950.021 153.593 950.348 153.247 950.521 152.82L952.821 153.46C952.435 154.26 951.815 154.92 950.961 155.44C950.108 155.947 949.101 156.2 947.941 156.2ZM945.201 149.92H950.681C950.601 149.133 950.301 148.5 949.781 148.02C949.275 147.527 948.655 147.28 947.921 147.28C947.201 147.28 946.581 147.527 946.061 148.02C945.555 148.5 945.268 149.133 945.201 149.92ZM955.034 141.4H957.714V152.64C957.714 153.133 957.794 153.46 957.954 153.62C958.114 153.78 958.334 153.86 958.614 153.86C958.827 153.86 959.047 153.833 959.274 153.78C959.501 153.727 959.701 153.66 959.874 153.58L960.234 155.62C959.874 155.793 959.454 155.927 958.974 156.02C958.494 156.113 958.061 156.16 957.674 156.16C956.834 156.16 956.181 155.94 955.714 155.5C955.261 155.047 955.034 154.407 955.034 153.58V141.4ZM961.402 144.06V141.4H964.082V144.06H961.402ZM961.402 156V145.52H964.082V156H961.402ZM969.319 156L965.459 145.52H968.239L970.879 153.56L973.539 145.52H976.079L972.239 156H969.319ZM982.004 156.2C980.87 156.2 979.89 155.953 979.064 155.46C978.25 154.967 977.617 154.313 977.164 153.5C976.71 152.673 976.484 151.78 976.484 150.82C976.484 149.833 976.704 148.927 977.144 148.1C977.597 147.26 978.237 146.593 979.064 146.1C979.89 145.593 980.877 145.34 982.024 145.34C983.17 145.34 984.15 145.593 984.964 146.1C985.777 146.593 986.397 147.253 986.824 148.08C987.264 148.893 987.484 149.773 987.484 150.72C987.484 151.067 987.464 151.367 987.424 151.62H979.324C979.39 152.433 979.69 153.073 980.224 153.54C980.77 154.007 981.397 154.24 982.104 154.24C982.637 154.24 983.137 154.113 983.604 153.86C984.084 153.593 984.41 153.247 984.584 152.82L986.884 153.46C986.497 154.26 985.877 154.92 985.024 155.44C984.17 155.947 983.164 156.2 982.004 156.2ZM979.264 149.92H984.744C984.664 149.133 984.364 148.5 983.844 148.02C983.337 147.527 982.717 147.28 981.984 147.28C981.264 147.28 980.644 147.527 980.124 148.02C979.617 148.5 979.33 149.133 979.264 149.92ZM995.356 147.84C994.543 147.84 993.816 148 993.176 148.32C992.536 148.627 992.076 149.073 991.796 149.66V156H989.116V145.52H991.576V147.76C991.936 147.04 992.403 146.473 992.976 146.06C993.563 145.647 994.176 145.42 994.816 145.38C995.096 145.38 995.276 145.387 995.356 145.4V147.84ZM1001.57 156.2C1000.44 156.2 999.461 155.953 998.634 155.46C997.821 154.967 997.187 154.313 996.734 153.5C996.281 152.673 996.054 151.78 996.054 150.82C996.054 149.833 996.274 148.927 996.714 148.1C997.167 147.26 997.807 146.593 998.634 146.1C999.461 145.593 1000.45 145.34 1001.59 145.34C1002.74 145.34 1003.72 145.593 1004.53 146.1C1005.35 146.593 1005.97 147.253 1006.39 148.08C1006.83 148.893 1007.05 149.773 1007.05 150.72C1007.05 151.067 1007.03 151.367 1006.99 151.62H998.894C998.961 152.433 999.261 153.073 999.794 153.54C1000.34 154.007 1000.97 154.24 1001.67 154.24C1002.21 154.24 1002.71 154.113 1003.17 153.86C1003.65 153.593 1003.98 153.247 1004.15 152.82L1006.45 153.46C1006.07 154.26 1005.45 154.92 1004.59 155.44C1003.74 155.947 1002.73 156.2 1001.57 156.2ZM998.834 149.92H1004.31C1004.23 149.133 1003.93 148.5 1003.41 148.02C1002.91 147.527 1002.29 147.28 1001.55 147.28C1000.83 147.28 1000.21 147.527 999.694 148.02C999.187 148.5 998.901 149.133 998.834 149.92ZM1008.05 150.76C1008.05 149.76 1008.25 148.847 1008.65 148.02C1009.05 147.193 1009.6 146.54 1010.31 146.06C1011.01 145.58 1011.82 145.34 1012.73 145.34C1013.5 145.34 1014.19 145.533 1014.81 145.92C1015.43 146.293 1015.92 146.773 1016.27 147.36V141.4H1018.95V153C1018.95 153.293 1018.99 153.5 1019.09 153.62C1019.18 153.727 1019.34 153.793 1019.57 153.82V156C1019.09 156.093 1018.71 156.14 1018.43 156.14C1017.95 156.14 1017.55 156.02 1017.23 155.78C1016.92 155.54 1016.75 155.227 1016.71 154.84L1016.67 154.18C1016.28 154.833 1015.75 155.333 1015.09 155.68C1014.43 156.027 1013.75 156.2 1013.03 156.2C1012.05 156.2 1011.19 155.96 1010.45 155.48C1009.7 154.987 1009.11 154.333 1008.69 153.52C1008.26 152.693 1008.05 151.773 1008.05 150.76ZM1016.27 152.16V149.66C1016.05 149.073 1015.69 148.587 1015.17 148.2C1014.65 147.813 1014.11 147.62 1013.57 147.62C1013.02 147.62 1012.54 147.773 1012.13 148.08C1011.71 148.373 1011.39 148.767 1011.17 149.26C1010.94 149.74 1010.83 150.26 1010.83 150.82C1010.83 151.393 1010.95 151.92 1011.21 152.4C1011.46 152.867 1011.8 153.24 1012.23 153.52C1012.67 153.787 1013.17 153.92 1013.73 153.92C1014.23 153.92 1014.73 153.753 1015.23 153.42C1015.73 153.087 1016.08 152.667 1016.27 152.16Z" fill="#464558"/>
<g clip-path="url(#clip1_338_19)">
<path d="M963.435 36.4706V38.8235H955.204C953.256 38.8235 951.676 37.2434 951.676 35.2941V30.5882C951.676 28.639 953.256 27.0588 955.204 27.0588H963.435V29.4118H955.204C954.555 29.4118 954.028 29.9385 954.028 30.5882V35.2941C954.028 35.9439 954.555 36.4706 955.204 36.4706H963.435ZM921.104 35.2941C921.104 34.6444 921.631 34.1177 922.28 34.1177C922.93 34.1177 923.456 34.6444 923.456 35.2941V44.7059C923.456 45.3556 922.93 45.8824 922.28 45.8824C921.631 45.8824 921.104 45.3556 921.104 44.7059V35.2941ZM937.566 40C937.566 39.3503 938.093 38.8235 938.742 38.8235C939.392 38.8235 939.918 39.3503 939.918 40V44.7059C939.918 45.3556 939.392 45.8824 938.742 45.8824C938.093 45.8824 937.566 45.3556 937.566 44.7059V40ZM955.204 60C951.957 60 949.325 57.3664 949.325 54.1177C949.325 50.8689 951.957 48.2353 955.204 48.2353C958.451 48.2353 961.083 50.8689 961.083 54.1177C961.083 57.3664 958.451 60 955.204 60ZM955.204 57.6471C957.152 57.6471 958.732 56.0669 958.732 54.1177C958.732 52.1684 957.152 50.5883 955.204 50.5883C953.256 50.5883 951.676 52.1684 951.676 54.1177C951.676 56.0669 953.256 57.6471 955.204 57.6471ZM929.335 60C926.088 60 923.456 57.3664 923.456 54.1177C923.456 50.8689 926.088 48.2353 929.335 48.2353C932.582 48.2353 935.215 50.8689 935.215 54.1177C935.215 57.3664 932.582 60 929.335 60ZM929.335 57.6471C931.284 57.6471 932.863 56.0669 932.863 54.1177C932.863 52.1684 931.284 50.5883 929.335 50.5883C927.387 50.5883 925.808 52.1684 925.808 54.1177C925.808 56.0669 927.387 57.6471 929.335 57.6471Z" fill="#222132"/>
<path d="M923.574 52.9412H919.929C917.98 52.9412 916.401 51.361 916.401 49.4118V47.0588C916.401 45.1096 917.98 43.5294 919.929 43.5294H944.835C944.697 43.1454 944.621 42.7307 944.621 42.2981V28.8979C944.616 29.2002 944.569 29.506 944.478 29.8088L941.959 38.1817C941.506 39.6873 940.071 40.7301 938.417 40.8185L931.792 41.1726C931.589 41.191 931.378 41.1568 931.178 41.0606L918.49 34.9607C916.907 34.2288 916.084 32.3971 916.515 30.6564L918.472 22.7515C918.903 21.0098 920.473 19.8378 922.195 20.0183L936.365 20.0003C936.668 19.9938 936.973 20.1033 937.207 20.3302L942.942 25.8716C943.984 26.5389 944.601 27.6272 944.621 28.7781V25.9372C944.621 23.9577 946.201 22.3529 948.149 22.3529C948.316 22.3529 948.483 22.365 948.648 22.389L960.86 24.1616C962.28 24.3677 963.435 25.4268 963.783 26.8405L965.681 34.5544C965.751 34.8387 965.787 35.1307 965.787 35.4238V42.2981C965.787 43.2205 965.444 44.0616 964.88 44.6968C965.444 45.3223 965.787 46.1505 965.787 47.0588V49.4118C965.787 51.361 964.207 52.9412 962.259 52.9412H960.966C960.789 52.0719 960.421 51.2723 959.908 50.5882L959.911 50.5882H962.259C962.908 50.5882 963.435 50.0615 963.435 49.4118V47.0588C963.435 46.4091 962.908 45.8824 962.259 45.8824H919.929C919.279 45.8824 918.753 46.4091 918.753 47.0588V49.4118C918.753 50.0615 919.279 50.5882 919.929 50.5882H924.123C924.28 50.5882 924.43 50.6192 924.567 50.6753C924.087 51.3398 923.743 52.1085 923.574 52.9412ZM934.08 50.6432C934.192 50.6075 934.312 50.5882 934.436 50.5882H950.497H950.5C949.987 51.2723 949.619 52.0719 949.442 52.9412H935.097C934.925 52.0951 934.572 51.315 934.08 50.6432ZM937.038 23.4373L933.214 38.7402L938.291 38.4689C938.988 38.4316 939.55 38.0233 939.707 37.5034L942.226 29.1305C942.37 28.6515 942.148 28.1305 941.621 27.8207L941.4 27.6526L937.038 23.4373ZM948.149 24.7424C947.5 24.7424 946.973 25.2774 946.973 25.9372V42.2981C946.973 42.9579 947.5 43.4928 948.149 43.4928H962.259C962.908 43.4928 963.435 42.9579 963.435 42.2981V35.4238C963.435 35.3261 963.423 35.2288 963.4 35.134L961.502 27.4201C961.386 26.9488 961.001 26.5958 960.527 26.5271L948.315 24.7545C948.26 24.7465 948.205 24.7424 948.149 24.7424ZM922.129 22.3713L921.975 22.3615C921.441 22.2918 920.913 22.6781 920.755 23.3173L918.798 31.2222C918.632 31.891 918.94 32.5767 919.493 32.8323L930.896 38.3148L934.884 22.3551L922.129 22.3713Z" fill="#222132"/>
</g>
<path d="M615.191 113.679C615.191 115.499 614.736 117.137 613.826 118.593C612.942 120.049 611.72 121.219 610.16 122.103C608.626 122.961 606.897 123.39 604.973 123.39C602.815 123.39 600.969 122.87 599.435 121.83C597.901 120.79 596.718 119.295 595.886 117.345C595.08 115.369 594.677 113.003 594.677 110.247C594.677 107.023 595.119 104.28 596.003 102.018C596.887 99.756 598.135 98.04 599.747 96.87C601.385 95.674 603.335 95.076 605.597 95.076C607.313 95.076 608.912 95.44 610.394 96.168C611.876 96.87 613.163 97.871 614.255 99.171L610.745 103.149C610.095 102.317 609.315 101.667 608.405 101.199C607.495 100.731 606.52 100.497 605.48 100.497C604.492 100.497 603.621 100.744 602.867 101.238C602.113 101.732 601.528 102.447 601.112 103.383C600.696 104.319 600.462 105.45 600.41 106.776C600.774 106.282 601.203 105.879 601.697 105.567C602.191 105.229 602.763 104.982 603.413 104.826C604.063 104.644 604.765 104.553 605.519 104.553C607.365 104.553 609.016 104.956 610.472 105.762C611.928 106.568 613.072 107.66 613.904 109.038C614.762 110.39 615.191 111.937 615.191 113.679ZM604.973 118.125C605.753 118.125 606.455 117.93 607.079 117.54C607.729 117.124 608.249 116.578 608.639 115.902C609.055 115.226 609.263 114.485 609.263 113.679C609.263 112.899 609.068 112.197 608.678 111.573C608.288 110.923 607.768 110.416 607.118 110.052C606.468 109.662 605.753 109.467 604.973 109.467C604.193 109.467 603.478 109.662 602.828 110.052C602.178 110.416 601.658 110.923 601.268 111.573C600.878 112.197 600.683 112.912 600.683 113.718C600.683 114.498 600.878 115.226 601.268 115.902C601.684 116.578 602.217 117.124 602.867 117.54C603.517 117.93 604.219 118.125 604.973 118.125ZM638.802 114.615C638.802 116.357 638.334 117.891 637.398 119.217C636.488 120.517 635.253 121.531 633.693 122.259C632.133 122.987 630.417 123.351 628.545 123.351C626.699 123.351 624.996 122.987 623.436 122.259C621.902 121.505 620.667 120.452 619.731 119.1C618.795 117.748 618.327 116.175 618.327 114.381C618.327 113.393 618.522 112.509 618.912 111.729C619.302 110.923 619.796 110.221 620.394 109.623C621.018 109.025 621.616 108.557 622.188 108.219C621.616 107.881 621.096 107.465 620.628 106.971C620.186 106.451 619.822 105.879 619.536 105.255C619.276 104.605 619.146 103.942 619.146 103.266C619.146 101.966 619.432 100.822 620.004 99.834C620.576 98.846 621.33 98.014 622.266 97.338C623.202 96.662 624.216 96.155 625.308 95.817C626.426 95.479 627.505 95.31 628.545 95.31C629.611 95.31 630.703 95.479 631.821 95.817C632.939 96.155 633.966 96.662 634.902 97.338C635.838 97.988 636.592 98.807 637.164 99.795C637.736 100.783 638.022 101.914 638.022 103.188C638.022 103.864 637.879 104.54 637.593 105.216C637.307 105.866 636.93 106.451 636.462 106.971C635.994 107.491 635.474 107.907 634.902 108.219C635.552 108.583 636.176 109.077 636.774 109.701C637.372 110.299 637.853 111.014 638.217 111.846C638.607 112.652 638.802 113.575 638.802 114.615ZM632.484 114.225C632.484 113.679 632.38 113.198 632.172 112.782C631.964 112.34 631.665 111.976 631.275 111.69C630.911 111.378 630.495 111.157 630.027 111.027C629.559 110.871 629.065 110.793 628.545 110.793C627.843 110.793 627.193 110.936 626.595 111.222C625.997 111.508 625.516 111.911 625.152 112.431C624.814 112.925 624.645 113.536 624.645 114.264C624.645 114.758 624.749 115.226 624.957 115.668C625.191 116.084 625.49 116.448 625.854 116.76C626.218 117.072 626.634 117.306 627.102 117.462C627.57 117.618 628.064 117.696 628.584 117.696C629.286 117.696 629.923 117.553 630.495 117.267C631.093 116.955 631.574 116.539 631.938 116.019C632.302 115.499 632.484 114.901 632.484 114.225ZM625.464 103.383C625.464 103.981 625.62 104.488 625.932 104.904C626.244 105.294 626.634 105.593 627.102 105.801C627.596 106.009 628.077 106.113 628.545 106.113C629.065 106.113 629.559 106.009 630.027 105.801C630.495 105.593 630.885 105.294 631.197 104.904C631.509 104.488 631.665 103.981 631.665 103.383C631.665 102.889 631.522 102.447 631.236 102.057C630.976 101.667 630.612 101.368 630.144 101.16C629.676 100.926 629.143 100.809 628.545 100.809C627.973 100.809 627.453 100.926 626.985 101.16C626.517 101.368 626.14 101.667 625.854 102.057C625.594 102.447 625.464 102.889 625.464 103.383ZM641.899 104.787C641.899 102.967 642.341 101.329 643.225 99.873C644.135 98.417 645.357 97.26 646.891 96.402C648.451 95.518 650.206 95.076 652.156 95.076C654.288 95.076 656.121 95.596 657.655 96.636C659.189 97.676 660.372 99.171 661.204 101.121C662.036 103.071 662.452 105.437 662.452 108.219C662.452 111.443 662.01 114.186 661.126 116.448C660.242 118.684 658.981 120.4 657.343 121.596C655.705 122.792 653.768 123.39 651.532 123.39C649.816 123.39 648.217 123.039 646.735 122.337C645.253 121.635 643.953 120.621 642.835 119.295L646.345 115.317C646.995 116.149 647.775 116.799 648.685 117.267C649.621 117.735 650.596 117.969 651.61 117.969C652.65 117.969 653.534 117.722 654.262 117.228C655.016 116.734 655.601 116.019 656.017 115.083C656.433 114.147 656.654 113.016 656.68 111.69C656.342 112.184 655.913 112.6 655.393 112.938C654.899 113.25 654.327 113.497 653.677 113.679C653.053 113.861 652.364 113.952 651.61 113.952C649.79 113.952 648.139 113.549 646.657 112.743C645.175 111.937 644.005 110.845 643.147 109.467C642.315 108.063 641.899 106.503 641.899 104.787ZM652.156 100.341C651.376 100.341 650.661 100.549 650.011 100.965C649.387 101.355 648.867 101.888 648.451 102.564C648.061 103.214 647.866 103.955 647.866 104.787C647.866 105.541 648.061 106.243 648.451 106.893C648.841 107.543 649.361 108.063 650.011 108.453C650.661 108.817 651.376 108.999 652.156 108.999C652.936 108.999 653.651 108.817 654.301 108.453C654.951 108.063 655.471 107.543 655.861 106.893C656.251 106.243 656.446 105.541 656.446 104.787C656.446 103.981 656.238 103.24 655.822 102.564C655.432 101.888 654.912 101.355 654.262 100.965C653.612 100.549 652.91 100.341 652.156 100.341ZM666.758 123V95.31H673.154V107.244L683.294 95.31H690.47L680.096 107.673L691.172 123H683.84L676.04 111.885L673.154 114.849V123H666.758ZM705.357 106.659V111.651H701.652V115.707H696.036V111.651H692.37V106.659H696.036V102.603H701.652V106.659H705.357Z" fill="#F95C19"/>
<path d="M597.5 141.8V156H594.76V149.94H588.32V156H585.56V141.8H588.32V147.54H594.76V141.8H597.5ZM599.365 152.9C599.365 152.22 599.552 151.627 599.925 151.12C600.312 150.6 600.845 150.2 601.525 149.92C602.205 149.64 602.985 149.5 603.865 149.5C604.305 149.5 604.752 149.54 605.205 149.62C605.659 149.687 606.052 149.787 606.385 149.92V149.36C606.385 148.693 606.185 148.18 605.785 147.82C605.399 147.46 604.819 147.28 604.045 147.28C603.472 147.28 602.925 147.38 602.405 147.58C601.885 147.78 601.339 148.073 600.765 148.46L599.905 146.7C600.599 146.247 601.305 145.907 602.025 145.68C602.759 145.453 603.525 145.34 604.325 145.34C605.819 145.34 606.979 145.713 607.805 146.46C608.645 147.207 609.065 148.273 609.065 149.66V153C609.065 153.293 609.112 153.5 609.205 153.62C609.299 153.727 609.465 153.793 609.705 153.82V156C609.465 156.053 609.245 156.087 609.045 156.1C608.859 156.127 608.699 156.14 608.565 156.14C608.032 156.14 607.625 156.02 607.345 155.78C607.065 155.54 606.899 155.247 606.845 154.9L606.785 154.36C606.319 154.96 605.745 155.42 605.065 155.74C604.399 156.047 603.712 156.2 603.005 156.2C602.299 156.2 601.672 156.06 601.125 155.78C600.579 155.487 600.145 155.093 599.825 154.6C599.519 154.093 599.365 153.527 599.365 152.9ZM605.885 153.44C606.219 153.12 606.385 152.813 606.385 152.52V151.46C605.692 151.18 604.992 151.04 604.285 151.04C603.579 151.04 603.005 151.193 602.565 151.5C602.125 151.793 601.905 152.187 601.905 152.68C601.905 153.08 602.065 153.44 602.385 153.76C602.705 154.08 603.165 154.24 603.765 154.24C604.165 154.24 604.552 154.167 604.925 154.02C605.312 153.873 605.632 153.68 605.885 153.44ZM617.85 156.2C617.023 156.2 616.303 156.013 615.69 155.64C615.076 155.267 614.596 154.773 614.25 154.16V160.26H611.57V145.52H613.91V147.32C614.296 146.707 614.796 146.227 615.41 145.88C616.036 145.52 616.743 145.34 617.53 145.34C618.476 145.34 619.316 145.587 620.05 146.08C620.783 146.56 621.363 147.213 621.79 148.04C622.216 148.853 622.43 149.753 622.43 150.74C622.43 151.767 622.23 152.693 621.83 153.52C621.443 154.333 620.903 154.987 620.21 155.48C619.53 155.96 618.743 156.2 617.85 156.2ZM616.95 153.92C617.496 153.92 617.97 153.773 618.37 153.48C618.783 153.173 619.103 152.78 619.33 152.3C619.57 151.807 619.69 151.287 619.69 150.74C619.69 150.153 619.563 149.627 619.31 149.16C619.056 148.68 618.71 148.307 618.27 148.04C617.843 147.76 617.35 147.62 616.79 147.62C616.283 147.62 615.776 147.787 615.27 148.12C614.763 148.453 614.423 148.873 614.25 149.38V151.84C614.49 152.427 614.856 152.92 615.35 153.32C615.843 153.72 616.376 153.92 616.95 153.92ZM630.525 156.2C629.699 156.2 628.979 156.013 628.365 155.64C627.752 155.267 627.272 154.773 626.925 154.16V160.26H624.245V145.52H626.585V147.32C626.972 146.707 627.472 146.227 628.085 145.88C628.712 145.52 629.419 145.34 630.205 145.34C631.152 145.34 631.992 145.587 632.725 146.08C633.459 146.56 634.039 147.213 634.465 148.04C634.892 148.853 635.105 149.753 635.105 150.74C635.105 151.767 634.905 152.693 634.505 153.52C634.119 154.333 633.579 154.987 632.885 155.48C632.205 155.96 631.419 156.2 630.525 156.2ZM629.625 153.92C630.172 153.92 630.645 153.773 631.045 153.48C631.459 153.173 631.779 152.78 632.005 152.3C632.245 151.807 632.365 151.287 632.365 150.74C632.365 150.153 632.239 149.627 631.985 149.16C631.732 148.68 631.385 148.307 630.945 148.04C630.519 147.76 630.025 147.62 629.465 147.62C628.959 147.62 628.452 147.787 627.945 148.12C627.439 148.453 627.099 148.873 626.925 149.38V151.84C627.165 152.427 627.532 152.92 628.025 153.32C628.519 153.72 629.052 153.92 629.625 153.92ZM636.79 158.04C637.283 158.173 637.683 158.24 637.99 158.24C638.35 158.24 638.636 158.087 638.85 157.78C639.076 157.487 639.33 156.893 639.61 156L635.47 145.52H638.25L641.07 153.26L643.55 145.52H646.11L641.71 158.08C641.47 158.8 641.036 159.393 640.41 159.86C639.796 160.34 639.036 160.58 638.13 160.58C637.69 160.58 637.243 160.507 636.79 160.36V158.04ZM656.743 156.2C655.609 156.2 654.629 155.947 653.803 155.44C652.976 154.933 652.336 154.267 651.883 153.44C651.429 152.613 651.203 151.72 651.203 150.76C651.203 149.787 651.423 148.887 651.863 148.06C652.316 147.233 652.956 146.573 653.783 146.08C654.609 145.587 655.589 145.34 656.723 145.34C657.869 145.34 658.843 145.587 659.643 146.08C660.456 146.573 661.063 147.22 661.463 148.02L658.843 148.82C658.376 148.02 657.663 147.62 656.703 147.62C656.183 147.62 655.716 147.753 655.303 148.02C654.889 148.273 654.563 148.64 654.323 149.12C654.083 149.587 653.963 150.133 653.963 150.76C653.963 151.373 654.083 151.92 654.323 152.4C654.576 152.867 654.909 153.24 655.323 153.52C655.736 153.787 656.196 153.92 656.703 153.92C657.183 153.92 657.623 153.807 658.023 153.58C658.436 153.34 658.723 153.04 658.883 152.68L661.503 153.48C661.143 154.267 660.543 154.92 659.703 155.44C658.876 155.947 657.889 156.2 656.743 156.2ZM663.132 141.4H665.812V152.64C665.812 153.133 665.892 153.46 666.052 153.62C666.212 153.78 666.432 153.86 666.712 153.86C666.925 153.86 667.145 153.833 667.372 153.78C667.598 153.727 667.798 153.66 667.972 153.58L668.332 155.62C667.972 155.793 667.552 155.927 667.072 156.02C666.592 156.113 666.158 156.16 665.772 156.16C664.932 156.16 664.278 155.94 663.812 155.5C663.358 155.047 663.132 154.407 663.132 153.58V141.4ZM669.499 144.06V141.4H672.179V144.06H669.499ZM669.499 156V145.52H672.179V156H669.499ZM679.457 156.2C678.324 156.2 677.344 155.953 676.517 155.46C675.704 154.967 675.07 154.313 674.617 153.5C674.164 152.673 673.937 151.78 673.937 150.82C673.937 149.833 674.157 148.927 674.597 148.1C675.05 147.26 675.69 146.593 676.517 146.1C677.344 145.593 678.33 145.34 679.477 145.34C680.624 145.34 681.604 145.593 682.417 146.1C683.23 146.593 683.85 147.253 684.277 148.08C684.717 148.893 684.937 149.773 684.937 150.72C684.937 151.067 684.917 151.367 684.877 151.62H676.777C676.844 152.433 677.144 153.073 677.677 153.54C678.224 154.007 678.85 154.24 679.557 154.24C680.09 154.24 680.59 154.113 681.057 153.86C681.537 153.593 681.864 153.247 682.037 152.82L684.337 153.46C683.95 154.26 683.33 154.92 682.477 155.44C681.624 155.947 680.617 156.2 679.457 156.2ZM676.717 149.92H682.197C682.117 149.133 681.817 148.5 681.297 148.02C680.79 147.527 680.17 147.28 679.437 147.28C678.717 147.28 678.097 147.527 677.577 148.02C677.07 148.5 676.784 149.133 676.717 149.92ZM696.31 156H693.63V150.12C693.63 149.28 693.483 148.667 693.19 148.28C692.896 147.893 692.49 147.7 691.97 147.7C691.61 147.7 691.243 147.793 690.87 147.98C690.51 148.167 690.183 148.427 689.89 148.76C689.596 149.08 689.383 149.453 689.25 149.88V156H686.57V145.52H688.99V147.46C689.376 146.807 689.936 146.293 690.67 145.92C691.403 145.533 692.23 145.34 693.15 145.34C693.803 145.34 694.336 145.46 694.75 145.7C695.163 145.927 695.483 146.24 695.71 146.64C695.936 147.027 696.09 147.467 696.17 147.96C696.263 148.453 696.31 148.953 696.31 149.46V156ZM704.861 155.46C704.501 155.62 704.055 155.78 703.521 155.94C703.001 156.1 702.461 156.18 701.901 156.18C701.408 156.18 700.955 156.093 700.541 155.92C700.128 155.747 699.795 155.473 699.541 155.1C699.301 154.713 699.181 154.213 699.181 153.6V147.58H697.801V145.52H699.181V142.12H701.861V145.52H704.061V147.58H701.861V152.7C701.861 153.06 701.955 153.32 702.141 153.48C702.341 153.64 702.581 153.72 702.861 153.72C703.141 153.72 703.415 153.673 703.681 153.58C703.948 153.487 704.161 153.407 704.321 153.34L704.861 155.46ZM710.117 156.2C709.224 156.2 708.37 156.053 707.557 155.76C706.744 155.467 706.044 155.033 705.457 154.46L706.417 152.72C707.044 153.227 707.657 153.6 708.257 153.84C708.857 154.08 709.444 154.2 710.017 154.2C710.537 154.2 710.95 154.107 711.257 153.92C711.577 153.733 711.737 153.453 711.737 153.08C711.737 152.693 711.544 152.433 711.157 152.3C710.77 152.153 710.23 151.973 709.537 151.76C708.764 151.52 708.117 151.273 707.597 151.02C707.077 150.767 706.684 150.46 706.417 150.1C706.164 149.74 706.037 149.273 706.037 148.7C706.037 147.673 706.424 146.853 707.197 146.24C707.97 145.627 708.997 145.32 710.277 145.32C711.024 145.32 711.73 145.44 712.397 145.68C713.064 145.907 713.67 146.28 714.217 146.8L713.137 148.5C712.11 147.7 711.117 147.3 710.157 147.3C709.73 147.3 709.35 147.38 709.017 147.54C708.697 147.7 708.537 147.98 708.537 148.38C708.537 148.753 708.69 149.02 708.997 149.18C709.317 149.34 709.797 149.513 710.437 149.7C711.264 149.953 711.964 150.2 712.537 150.44C713.124 150.68 713.564 150.987 713.857 151.36C714.164 151.733 714.317 152.24 714.317 152.88C714.317 153.92 713.937 154.733 713.177 155.32C712.417 155.907 711.397 156.2 710.117 156.2Z" fill="#464558"/>
<g clip-path="url(#clip2_338_19)">
<path d="M650.343 47.5557V58.831C650.343 59.4753 649.812 59.9976 649.157 59.9976C648.502 59.9976 647.972 59.4753 647.972 58.831V47.5555L641.094 38.5334C640.702 38.0179 640.808 37.2867 641.332 36.9001C641.856 36.5135 642.599 36.6179 642.992 37.1334L649.157 45.2223L655.323 37.1334C655.716 36.6179 656.459 36.5135 656.983 36.9001C657.507 37.2867 657.613 38.0179 657.22 38.5334L650.343 47.5557ZM644.533 21.0227C642.501 23.6425 640.078 25.0022 637.3 25.0024C636.645 25.0024 636.114 24.4801 636.114 23.8358C636.114 23.1914 636.645 22.6691 637.3 22.669C639.584 22.6689 641.599 21.3438 643.396 18.5438C643.837 17.8572 644.838 17.8125 645.34 18.4569C647.673 21.452 652.763 22.159 660.747 20.3382C661.385 20.1927 662.022 20.5836 662.17 21.2113C662.318 21.839 661.92 22.4658 661.282 22.6113C653.428 24.4025 647.812 23.9299 644.533 21.0227ZM656.272 50.669C655.617 50.6693 655.086 50.1473 655.086 49.5029C655.086 48.8586 655.616 48.336 656.271 48.3357L661.014 48.3333C661.669 48.333 662.2 48.8551 662.2 49.4994C662.201 50.1437 661.67 50.6663 661.015 50.6667L656.272 50.669Z" fill="#222132"/>
<path d="M642.053 36.7958C637.451 39.0177 631.371 45.9286 631.371 49.5497V55.6335C631.371 56.6271 631.371 56.9993 631.371 57.5815L666.943 57.6234C666.943 57.4155 666.943 57.1778 666.943 56.7761V49.5497C666.943 46.1782 660.652 39.153 656.306 36.7627C654.388 38.1925 652.003 39 649.157 39C646.333 39 643.964 38.205 642.053 36.7958ZM640.225 35.1098C637.491 31.9919 636.114 27.2466 636.114 21.7917C636.114 14.5737 641.158 11 649.157 11C657.156 11 662.2 14.5737 662.2 21.7917C662.2 27.2388 660.827 31.9783 658.101 35.0964C663.048 38.1211 669.315 45.3231 669.315 49.5497V58.7482C669.315 59.3925 668.784 59.9149 668.129 59.9149H630.186C629.531 59.9149 629 59.3925 629 58.7482V49.5497C629 45.1155 635.033 38.0127 640.225 35.1098ZM649.157 36.6667C656.158 36.6667 659.829 30.4074 659.829 21.7917C659.829 16.0583 655.983 13.3333 649.157 13.3333C642.332 13.3333 638.486 16.0583 638.486 21.7917C638.486 30.4074 642.157 36.6667 649.157 36.6667Z" fill="#222132"/>
</g>
<path d="M333.191 113.679C333.191 115.499 332.736 117.15 331.826 118.632C330.942 120.088 329.72 121.245 328.16 122.103C326.626 122.961 324.897 123.39 322.973 123.39C319.749 123.39 317.227 122.233 315.407 119.919C313.587 117.605 312.677 114.381 312.677 110.247C312.677 107.023 313.119 104.28 314.003 102.018C314.887 99.756 316.135 98.04 317.747 96.87C319.385 95.674 321.335 95.076 323.597 95.076C325.287 95.076 326.873 95.427 328.355 96.129C329.837 96.831 331.137 97.845 332.255 99.171L328.745 103.149C328.095 102.317 327.315 101.667 326.405 101.199C325.495 100.731 324.52 100.497 323.48 100.497C321.972 100.497 320.763 101.056 319.853 102.174C318.943 103.266 318.462 104.8 318.41 106.776C319.528 105.294 321.231 104.553 323.519 104.553C325.339 104.553 326.977 104.956 328.433 105.762C329.915 106.568 331.072 107.66 331.904 109.038C332.762 110.416 333.191 111.963 333.191 113.679ZM322.973 118.125C323.727 118.125 324.429 117.93 325.079 117.54C325.729 117.124 326.249 116.578 326.639 115.902C327.055 115.226 327.263 114.485 327.263 113.679C327.263 112.509 326.834 111.521 325.976 110.715C325.144 109.883 324.143 109.467 322.973 109.467C321.777 109.467 320.763 109.883 319.931 110.715C319.099 111.521 318.683 112.509 318.683 113.679C318.683 114.485 318.878 115.226 319.268 115.902C319.684 116.578 320.204 117.124 320.828 117.54C321.478 117.93 322.193 118.125 322.973 118.125ZM345.258 123.351C343.23 123.351 341.41 122.948 339.798 122.142C338.186 121.336 336.951 120.205 336.093 118.749L339.603 114.888C340.331 115.824 341.202 116.565 342.216 117.111C343.23 117.631 344.257 117.891 345.297 117.891C346.493 117.891 347.455 117.54 348.183 116.838C348.937 116.136 349.314 115.213 349.314 114.069C349.314 112.951 348.963 112.054 348.261 111.378C347.585 110.676 346.714 110.325 345.648 110.325C344.946 110.325 344.283 110.481 343.659 110.793C343.061 111.105 342.593 111.547 342.255 112.119H336.834L340.071 95.271H353.838V100.965H344.595L343.776 105.684C343.958 105.502 344.27 105.346 344.712 105.216C345.18 105.06 345.791 104.982 346.545 104.982C348.313 104.982 349.886 105.359 351.264 106.113C352.642 106.867 353.721 107.92 354.501 109.272C355.307 110.624 355.71 112.171 355.71 113.913C355.71 115.785 355.255 117.436 354.345 118.866C353.461 120.27 352.226 121.375 350.64 122.181C349.08 122.961 347.286 123.351 345.258 123.351ZM371.941 106.659V111.651H368.236V115.707H362.62V111.651H358.954V106.659H362.62V102.603H368.236V106.659H371.941Z" fill="#F95C19"/>
<path d="M283.27 145.52C283.15 145.387 282.897 145.213 282.51 145C282.123 144.773 281.657 144.573 281.11 144.4C280.577 144.213 280.023 144.12 279.45 144.12C277.943 144.12 277.19 144.653 277.19 145.72C277.19 146.107 277.31 146.413 277.55 146.64C277.79 146.867 278.15 147.06 278.63 147.22C279.11 147.38 279.71 147.553 280.43 147.74C281.363 147.98 282.17 148.26 282.85 148.58C283.543 148.9 284.07 149.327 284.43 149.86C284.803 150.38 284.99 151.073 284.99 151.94C284.99 152.953 284.743 153.773 284.25 154.4C283.77 155.013 283.13 155.46 282.33 155.74C281.53 156.02 280.663 156.16 279.73 156.16C278.663 156.16 277.603 156 276.55 155.68C275.51 155.347 274.583 154.893 273.77 154.32L274.99 151.94C275.11 152.06 275.323 152.22 275.63 152.42C275.937 152.607 276.31 152.8 276.75 153C277.19 153.187 277.67 153.347 278.19 153.48C278.71 153.613 279.237 153.68 279.77 153.68C281.29 153.68 282.05 153.193 282.05 152.22C282.05 151.807 281.897 151.473 281.59 151.22C281.283 150.967 280.85 150.753 280.29 150.58C279.743 150.407 279.103 150.213 278.37 150C277.463 149.747 276.71 149.467 276.11 149.16C275.523 148.84 275.083 148.447 274.79 147.98C274.497 147.5 274.35 146.893 274.35 146.16C274.35 145.187 274.577 144.373 275.03 143.72C275.497 143.053 276.123 142.553 276.91 142.22C277.697 141.873 278.57 141.7 279.53 141.7C280.517 141.7 281.437 141.86 282.29 142.18C283.143 142.5 283.877 142.867 284.49 143.28L283.27 145.52ZM292.861 155.46C292.501 155.62 292.055 155.78 291.521 155.94C291.001 156.1 290.461 156.18 289.901 156.18C289.408 156.18 288.955 156.093 288.541 155.92C288.128 155.747 287.795 155.473 287.541 155.1C287.301 154.713 287.181 154.213 287.181 153.6V147.58H285.801V145.52H287.181V142.12H289.861V145.52H292.061V147.58H289.861V152.7C289.861 153.06 289.955 153.32 290.141 153.48C290.341 153.64 290.581 153.72 290.861 153.72C291.141 153.72 291.415 153.673 291.681 153.58C291.948 153.487 292.161 153.407 292.321 153.34L292.861 155.46ZM293.537 152.9C293.537 152.22 293.724 151.627 294.097 151.12C294.484 150.6 295.017 150.2 295.697 149.92C296.377 149.64 297.157 149.5 298.037 149.5C298.477 149.5 298.924 149.54 299.377 149.62C299.83 149.687 300.224 149.787 300.557 149.92V149.36C300.557 148.693 300.357 148.18 299.957 147.82C299.57 147.46 298.99 147.28 298.217 147.28C297.644 147.28 297.097 147.38 296.577 147.58C296.057 147.78 295.51 148.073 294.937 148.46L294.077 146.7C294.77 146.247 295.477 145.907 296.197 145.68C296.93 145.453 297.697 145.34 298.497 145.34C299.99 145.34 301.15 145.713 301.977 146.46C302.817 147.207 303.237 148.273 303.237 149.66V153C303.237 153.293 303.284 153.5 303.377 153.62C303.47 153.727 303.637 153.793 303.877 153.82V156C303.637 156.053 303.417 156.087 303.217 156.1C303.03 156.127 302.87 156.14 302.737 156.14C302.204 156.14 301.797 156.02 301.517 155.78C301.237 155.54 301.07 155.247 301.017 154.9L300.957 154.36C300.49 154.96 299.917 155.42 299.237 155.74C298.57 156.047 297.884 156.2 297.177 156.2C296.47 156.2 295.844 156.06 295.297 155.78C294.75 155.487 294.317 155.093 293.997 154.6C293.69 154.093 293.537 153.527 293.537 152.9ZM300.057 153.44C300.39 153.12 300.557 152.813 300.557 152.52V151.46C299.864 151.18 299.164 151.04 298.457 151.04C297.75 151.04 297.177 151.193 296.737 151.5C296.297 151.793 296.077 152.187 296.077 152.68C296.077 153.08 296.237 153.44 296.557 153.76C296.877 154.08 297.337 154.24 297.937 154.24C298.337 154.24 298.724 154.167 299.097 154.02C299.484 153.873 299.804 153.68 300.057 153.44ZM311.924 155.46C311.564 155.62 311.117 155.78 310.584 155.94C310.064 156.1 309.524 156.18 308.964 156.18C308.47 156.18 308.017 156.093 307.604 155.92C307.19 155.747 306.857 155.473 306.604 155.1C306.364 154.713 306.244 154.213 306.244 153.6V147.58H304.864V145.52H306.244V142.12H308.924V145.52H311.124V147.58H308.924V152.7C308.924 153.06 309.017 153.32 309.204 153.48C309.404 153.64 309.644 153.72 309.924 153.72C310.204 153.72 310.477 153.673 310.744 153.58C311.01 153.487 311.224 153.407 311.384 153.34L311.924 155.46ZM318.043 156.2C316.91 156.2 315.93 155.953 315.103 155.46C314.29 154.967 313.656 154.313 313.203 153.5C312.75 152.673 312.523 151.78 312.523 150.82C312.523 149.833 312.743 148.927 313.183 148.1C313.636 147.26 314.276 146.593 315.103 146.1C315.93 145.593 316.916 145.34 318.063 145.34C319.21 145.34 320.19 145.593 321.003 146.1C321.816 146.593 322.436 147.253 322.863 148.08C323.303 148.893 323.523 149.773 323.523 150.72C323.523 151.067 323.503 151.367 323.463 151.62H315.363C315.43 152.433 315.73 153.073 316.263 153.54C316.81 154.007 317.436 154.24 318.143 154.24C318.676 154.24 319.176 154.113 319.643 153.86C320.123 153.593 320.45 153.247 320.623 152.82L322.923 153.46C322.536 154.26 321.916 154.92 321.063 155.44C320.21 155.947 319.203 156.2 318.043 156.2ZM315.303 149.92H320.783C320.703 149.133 320.403 148.5 319.883 148.02C319.376 147.527 318.756 147.28 318.023 147.28C317.303 147.28 316.683 147.527 316.163 148.02C315.656 148.5 315.37 149.133 315.303 149.92ZM329.016 156.2C328.122 156.2 327.269 156.053 326.456 155.76C325.642 155.467 324.942 155.033 324.356 154.46L325.316 152.72C325.942 153.227 326.556 153.6 327.156 153.84C327.756 154.08 328.342 154.2 328.916 154.2C329.436 154.2 329.849 154.107 330.156 153.92C330.476 153.733 330.636 153.453 330.636 153.08C330.636 152.693 330.442 152.433 330.056 152.3C329.669 152.153 329.129 151.973 328.436 151.76C327.662 151.52 327.016 151.273 326.496 151.02C325.976 150.767 325.582 150.46 325.316 150.1C325.062 149.74 324.936 149.273 324.936 148.7C324.936 147.673 325.322 146.853 326.096 146.24C326.869 145.627 327.896 145.32 329.176 145.32C329.922 145.32 330.629 145.44 331.296 145.68C331.962 145.907 332.569 146.28 333.116 146.8L332.036 148.5C331.009 147.7 330.016 147.3 329.056 147.3C328.629 147.3 328.249 147.38 327.916 147.54C327.596 147.7 327.436 147.98 327.436 148.38C327.436 148.753 327.589 149.02 327.896 149.18C328.216 149.34 328.696 149.513 329.336 149.7C330.162 149.953 330.862 150.2 331.436 150.44C332.022 150.68 332.462 150.987 332.756 151.36C333.062 151.733 333.216 152.24 333.216 152.88C333.216 153.92 332.836 154.733 332.076 155.32C331.316 155.907 330.296 156.2 329.016 156.2ZM344.723 156.2C343.59 156.2 342.61 155.947 341.783 155.44C340.956 154.933 340.316 154.267 339.863 153.44C339.41 152.613 339.183 151.72 339.183 150.76C339.183 149.787 339.403 148.887 339.843 148.06C340.296 147.233 340.936 146.573 341.763 146.08C342.59 145.587 343.57 145.34 344.703 145.34C345.85 145.34 346.823 145.587 347.623 146.08C348.436 146.573 349.043 147.22 349.443 148.02L346.823 148.82C346.356 148.02 345.643 147.62 344.683 147.62C344.163 147.62 343.696 147.753 343.283 148.02C342.87 148.273 342.543 148.64 342.303 149.12C342.063 149.587 341.943 150.133 341.943 150.76C341.943 151.373 342.063 151.92 342.303 152.4C342.556 152.867 342.89 153.24 343.303 153.52C343.716 153.787 344.176 153.92 344.683 153.92C345.163 153.92 345.603 153.807 346.003 153.58C346.416 153.34 346.703 153.04 346.863 152.68L349.483 153.48C349.123 154.267 348.523 154.92 347.683 155.44C346.856 155.947 345.87 156.2 344.723 156.2ZM355.874 156.2C354.728 156.2 353.741 155.953 352.914 155.46C352.101 154.953 351.474 154.287 351.034 153.46C350.594 152.633 350.374 151.74 350.374 150.78C350.374 149.807 350.594 148.907 351.034 148.08C351.488 147.253 352.121 146.593 352.934 146.1C353.761 145.593 354.741 145.34 355.874 145.34C357.008 145.34 357.981 145.593 358.794 146.1C359.621 146.593 360.254 147.253 360.694 148.08C361.134 148.907 361.354 149.807 361.354 150.78C361.354 151.74 361.134 152.633 360.694 153.46C360.254 154.287 359.621 154.953 358.794 155.46C357.981 155.953 357.008 156.2 355.874 156.2ZM353.134 150.78C353.134 151.393 353.254 151.94 353.494 152.42C353.734 152.887 354.061 153.253 354.474 153.52C354.888 153.787 355.354 153.92 355.874 153.92C356.381 153.92 356.841 153.787 357.254 153.52C357.668 153.24 357.994 152.867 358.234 152.4C358.488 151.92 358.614 151.373 358.614 150.76C358.614 150.16 358.488 149.627 358.234 149.16C357.994 148.68 357.668 148.307 357.254 148.04C356.841 147.76 356.381 147.62 355.874 147.62C355.354 147.62 354.888 147.76 354.474 148.04C354.061 148.307 353.734 148.68 353.494 149.16C353.254 149.627 353.134 150.167 353.134 150.78ZM365.632 156L361.772 145.52H364.552L367.192 153.56L369.852 145.52H372.392L368.552 156H365.632ZM378.316 156.2C377.183 156.2 376.203 155.953 375.376 155.46C374.563 154.967 373.93 154.313 373.476 153.5C373.023 152.673 372.796 151.78 372.796 150.82C372.796 149.833 373.016 148.927 373.456 148.1C373.91 147.26 374.55 146.593 375.376 146.1C376.203 145.593 377.19 145.34 378.336 145.34C379.483 145.34 380.463 145.593 381.276 146.1C382.09 146.593 382.71 147.253 383.136 148.08C383.576 148.893 383.796 149.773 383.796 150.72C383.796 151.067 383.776 151.367 383.736 151.62H375.636C375.703 152.433 376.003 153.073 376.536 153.54C377.083 154.007 377.71 154.24 378.416 154.24C378.95 154.24 379.45 154.113 379.916 153.86C380.396 153.593 380.723 153.247 380.896 152.82L383.196 153.46C382.81 154.26 382.19 154.92 381.336 155.44C380.483 155.947 379.476 156.2 378.316 156.2ZM375.576 149.92H381.056C380.976 149.133 380.676 148.5 380.156 148.02C379.65 147.527 379.03 147.28 378.296 147.28C377.576 147.28 376.956 147.527 376.436 148.02C375.93 148.5 375.643 149.133 375.576 149.92ZM391.669 147.84C390.856 147.84 390.129 148 389.489 148.32C388.849 148.627 388.389 149.073 388.109 149.66V156H385.429V145.52H387.889V147.76C388.249 147.04 388.716 146.473 389.289 146.06C389.876 145.647 390.489 145.42 391.129 145.38C391.409 145.38 391.589 145.387 391.669 145.4V147.84ZM397.887 156.2C396.753 156.2 395.773 155.953 394.947 155.46C394.133 154.967 393.5 154.313 393.047 153.5C392.593 152.673 392.367 151.78 392.367 150.82C392.367 149.833 392.587 148.927 393.027 148.1C393.48 147.26 394.12 146.593 394.947 146.1C395.773 145.593 396.76 145.34 397.907 145.34C399.053 145.34 400.033 145.593 400.847 146.1C401.66 146.593 402.28 147.253 402.707 148.08C403.147 148.893 403.367 149.773 403.367 150.72C403.367 151.067 403.347 151.367 403.307 151.62H395.207C395.273 152.433 395.573 153.073 396.107 153.54C396.653 154.007 397.28 154.24 397.987 154.24C398.52 154.24 399.02 154.113 399.487 153.86C399.967 153.593 400.293 153.247 400.467 152.82L402.767 153.46C402.38 154.26 401.76 154.92 400.907 155.44C400.053 155.947 399.047 156.2 397.887 156.2ZM395.147 149.92H400.627C400.547 149.133 400.247 148.5 399.727 148.02C399.22 147.527 398.6 147.28 397.867 147.28C397.147 147.28 396.527 147.527 396.007 148.02C395.5 148.5 395.213 149.133 395.147 149.92ZM404.359 150.76C404.359 149.76 404.559 148.847 404.959 148.02C405.359 147.193 405.913 146.54 406.619 146.06C407.326 145.58 408.133 145.34 409.039 145.34C409.813 145.34 410.506 145.533 411.119 145.92C411.746 146.293 412.233 146.773 412.579 147.36V141.4H415.259V153C415.259 153.293 415.306 153.5 415.399 153.62C415.493 153.727 415.653 153.793 415.879 153.82V156C415.399 156.093 415.019 156.14 414.739 156.14C414.259 156.14 413.859 156.02 413.539 155.78C413.233 155.54 413.059 155.227 413.019 154.84L412.979 154.18C412.593 154.833 412.066 155.333 411.399 155.68C410.746 156.027 410.059 156.2 409.339 156.2C408.366 156.2 407.506 155.96 406.759 155.48C406.013 154.987 405.426 154.333 404.999 153.52C404.573 152.693 404.359 151.773 404.359 150.76ZM412.579 152.16V149.66C412.366 149.073 411.999 148.587 411.479 148.2C410.959 147.813 410.426 147.62 409.879 147.62C409.333 147.62 408.853 147.773 408.439 148.08C408.026 148.373 407.706 148.767 407.479 149.26C407.253 149.74 407.139 150.26 407.139 150.82C407.139 151.393 407.266 151.92 407.519 152.4C407.773 152.867 408.113 153.24 408.539 153.52C408.979 153.787 409.479 153.92 410.039 153.92C410.546 153.92 411.046 153.753 411.539 153.42C412.046 153.087 412.393 152.667 412.579 152.16Z" fill="#464558"/>
<path d="M350.333 19.1953L336.333 13.11V50.4493C336.524 50.4324 336.718 50.4626 336.897 50.5399L350.333 56.3285V19.1953ZM352.667 20.1113V57.3338L366.667 50.8653V13.769L353.173 20.0038C353.013 20.0779 352.839 20.1138 352.667 20.1113ZM334.001 14.2068L322.333 19.6933V56.7931L334.075 51.4105C334.026 51.2826 334 51.1441 334 50.9994V14.2767C334 14.2533 334 14.23 334.001 14.2068ZM321.653 59.6719C320.88 60.0262 320 59.4615 320 58.6114V18.9447C320 18.4886 320.266 18.0743 320.68 17.8842L335.832 10.7728C336.133 10.6352 336.477 10.6312 336.78 10.7619L352.667 17.6672L367.344 10.8857C368.117 10.5284 369 11.0931 369 11.9447V51.6114C369 52.0663 368.736 52.4797 368.323 52.6705L353.173 59.6705C352.872 59.8095 352.526 59.814 352.222 59.6829L336.451 52.8881L321.653 59.6719Z" fill="#222132"/>
<path d="M62.7001 49.2V43.8H57.3001V49.2H62.7001ZM65.4001 49.2H54.6001V42.8782C49.0625 40.9209 44.9068 36.0382 43.9898 30.087C37.7335 29.0114 33.0001 23.9896 33.0001 17.9571V11.4C33.0001 9.90883 34.209 8.7 35.7001 8.7H43.8001C43.8001 7.20883 45.009 6 46.5001 6H73.5001C74.9913 6 76.2001 7.20883 76.2001 8.7H84.3001C85.7913 8.7 87.0001 9.90883 87.0001 11.4V17.9571C87.0001 23.9896 82.2667 29.0114 76.0104 30.087C75.0935 36.0382 70.9378 40.9209 65.4001 42.8782V49.2ZM46.5001 8.7V27.6C46.5001 35.0558 52.5443 41.1 60.0001 41.1C67.456 41.1 73.5001 35.0558 73.5001 27.6V8.7H46.5001ZM84.3001 17.9571V11.4H76.2001V27.2967C80.8865 26.2201 84.3001 22.4079 84.3001 17.9571ZM43.8001 11.4H35.7001V17.9571C35.7001 22.4079 39.1138 26.2201 43.8001 27.2967V11.4Z" fill="#222132"/>
<path d="M70.8001 49.2C72.2913 49.2 73.5001 49.9117 73.5001 51.9V57.3C73.5001 59.2882 72.2913 60 70.8001 60H49.2001C47.709 60 46.5001 59.2882 46.5001 57.3V51.9C46.5001 49.9117 47.709 49.2 49.2001 49.2H70.8001ZM49.2001 57.3H70.8001V51.9H49.2001V57.3Z" fill="#222132"/>
<path d="M29.3193 123C29.3193 120.868 29.4623 119.074 29.7483 117.618C30.0603 116.162 30.6193 114.914 31.4253 113.874C32.2313 112.834 33.3753 111.859 34.8573 110.949C35.7153 110.429 36.5993 109.935 37.5093 109.467C38.4453 108.973 39.3163 108.466 40.1223 107.946C40.9283 107.4 41.5783 106.789 42.0723 106.113C42.5923 105.411 42.8523 104.605 42.8523 103.695C42.8523 102.655 42.5403 101.875 41.9163 101.355C41.3183 100.809 40.5123 100.536 39.4983 100.536C38.2503 100.536 37.0673 100.874 35.9493 101.55C34.8573 102.2 33.9603 102.889 33.2583 103.617L29.3583 99.483C29.9303 98.833 30.7363 98.157 31.7763 97.455C32.8423 96.753 34.0903 96.168 35.5203 95.7C36.9763 95.232 38.5883 94.998 40.3563 94.998C43.4243 94.998 45.7903 95.765 47.4543 97.299C49.1183 98.807 49.9503 100.809 49.9503 103.305C49.9503 104.761 49.6643 106.022 49.0923 107.088C48.5463 108.154 47.8053 109.09 46.8693 109.896C45.9333 110.676 44.8933 111.417 43.7493 112.119C42.1893 113.003 40.9803 113.744 40.1223 114.342C39.2903 114.94 38.6533 115.473 38.2113 115.941C37.7693 116.409 37.3923 116.89 37.0803 117.384H49.9893V123H29.3193ZM74.1358 113.679C74.1358 115.499 73.6808 117.15 72.7708 118.632C71.8868 120.088 70.6648 121.245 69.1048 122.103C67.5708 122.961 65.8418 123.39 63.9178 123.39C60.6938 123.39 58.1718 122.233 56.3518 119.919C54.5318 117.605 53.6218 114.381 53.6218 110.247C53.6218 107.023 54.0638 104.28 54.9478 102.018C55.8318 99.756 57.0798 98.04 58.6918 96.87C60.3298 95.674 62.2798 95.076 64.5418 95.076C66.2318 95.076 67.8178 95.427 69.2998 96.129C70.7818 96.831 72.0818 97.845 73.1998 99.171L69.6898 103.149C69.0398 102.317 68.2598 101.667 67.3498 101.199C66.4398 100.731 65.4648 100.497 64.4248 100.497C62.9168 100.497 61.7078 101.056 60.7978 102.174C59.8878 103.266 59.4068 104.8 59.3548 106.776C60.4728 105.294 62.1758 104.553 64.4638 104.553C66.2838 104.553 67.9218 104.956 69.3778 105.762C70.8598 106.568 72.0168 107.66 72.8488 109.038C73.7068 110.416 74.1358 111.963 74.1358 113.679ZM63.9178 118.125C64.6718 118.125 65.3738 117.93 66.0238 117.54C66.6738 117.124 67.1938 116.578 67.5838 115.902C67.9998 115.226 68.2078 114.485 68.2078 113.679C68.2078 112.509 67.7788 111.521 66.9208 110.715C66.0888 109.883 65.0878 109.467 63.9178 109.467C62.7218 109.467 61.7078 109.883 60.8758 110.715C60.0438 111.521 59.6278 112.509 59.6278 113.679C59.6278 114.485 59.8228 115.226 60.2128 115.902C60.6288 116.578 61.1488 117.124 61.7728 117.54C62.4228 117.93 63.1378 118.125 63.9178 118.125ZM90.4534 106.659V111.651H86.7484V115.707H81.1324V111.651H77.4664V106.659H81.1324V102.603H86.7484V106.659H90.4534Z" fill="#F95C19"/>
<path d="M5.44938 141.8H8.24938L13.4694 156H10.6294L9.30938 152.46H4.34938L3.04937 156H0.209375L5.44938 141.8ZM8.80938 150.52L6.84938 144.66L4.80938 150.52H8.80938ZM27.0247 145.52H29.5647L25.1847 156H22.9447L21.1847 151.5L19.4647 156H17.2047L12.8447 145.52H15.3647L18.4847 153.44L19.7047 150.02L17.8847 145.54H20.1047L21.1847 148.74L22.2847 145.54H24.5047L22.6847 150.02L23.9247 153.44L27.0247 145.52ZM29.8281 152.9C29.8281 152.22 30.0148 151.627 30.3881 151.12C30.7748 150.6 31.3081 150.2 31.9881 149.92C32.6681 149.64 33.4481 149.5 34.3281 149.5C34.7681 149.5 35.2148 149.54 35.6681 149.62C36.1215 149.687 36.5148 149.787 36.8481 149.92V149.36C36.8481 148.693 36.6481 148.18 36.2481 147.82C35.8615 147.46 35.2815 147.28 34.5081 147.28C33.9348 147.28 33.3881 147.38 32.8681 147.58C32.3481 147.78 31.8015 148.073 31.2281 148.46L30.3681 146.7C31.0615 146.247 31.7681 145.907 32.4881 145.68C33.2215 145.453 33.9881 145.34 34.7881 145.34C36.2815 145.34 37.4415 145.713 38.2681 146.46C39.1081 147.207 39.5281 148.273 39.5281 149.66V153C39.5281 153.293 39.5748 153.5 39.6681 153.62C39.7615 153.727 39.9281 153.793 40.1681 153.82V156C39.9281 156.053 39.7081 156.087 39.5081 156.1C39.3215 156.127 39.1615 156.14 39.0281 156.14C38.4948 156.14 38.0881 156.02 37.8081 155.78C37.5281 155.54 37.3615 155.247 37.3081 154.9L37.2481 154.36C36.7815 154.96 36.2081 155.42 35.5281 155.74C34.8615 156.047 34.1748 156.2 33.4681 156.2C32.7615 156.2 32.1348 156.06 31.5881 155.78C31.0415 155.487 30.6081 155.093 30.2881 154.6C29.9815 154.093 29.8281 153.527 29.8281 152.9ZM36.3481 153.44C36.6815 153.12 36.8481 152.813 36.8481 152.52V151.46C36.1548 151.18 35.4548 151.04 34.7481 151.04C34.0415 151.04 33.4681 151.193 33.0281 151.5C32.5881 151.793 32.3681 152.187 32.3681 152.68C32.3681 153.08 32.5281 153.44 32.8481 153.76C33.1681 154.08 33.6281 154.24 34.2281 154.24C34.6281 154.24 35.0148 154.167 35.3881 154.02C35.7748 153.873 36.0948 153.68 36.3481 153.44ZM48.2725 147.84C47.4592 147.84 46.7325 148 46.0925 148.32C45.4525 148.627 44.9925 149.073 44.7125 149.66V156H42.0325V145.52H44.4925V147.76C44.8525 147.04 45.3192 146.473 45.8925 146.06C46.4792 145.647 47.0925 145.42 47.7325 145.38C48.0125 145.38 48.1925 145.387 48.2725 145.4V147.84ZM49.0292 150.76C49.0292 149.76 49.2292 148.847 49.6292 148.02C50.0292 147.193 50.5826 146.54 51.2892 146.06C51.9959 145.58 52.8026 145.34 53.7092 145.34C54.4826 145.34 55.1759 145.533 55.7892 145.92C56.4159 146.293 56.9026 146.773 57.2492 147.36V141.4H59.9292V153C59.9292 153.293 59.9759 153.5 60.0692 153.62C60.1626 153.727 60.3226 153.793 60.5492 153.82V156C60.0692 156.093 59.6892 156.14 59.4092 156.14C58.9292 156.14 58.5292 156.02 58.2092 155.78C57.9026 155.54 57.7292 155.227 57.6892 154.84L57.6492 154.18C57.2626 154.833 56.7359 155.333 56.0692 155.68C55.4159 156.027 54.7292 156.2 54.0092 156.2C53.0359 156.2 52.1759 155.96 51.4292 155.48C50.6826 154.987 50.0959 154.333 49.6692 153.52C49.2426 152.693 49.0292 151.773 49.0292 150.76ZM57.2492 152.16V149.66C57.0359 149.073 56.6692 148.587 56.1492 148.2C55.6292 147.813 55.0959 147.62 54.5492 147.62C54.0026 147.62 53.5226 147.773 53.1092 148.08C52.6959 148.373 52.3759 148.767 52.1492 149.26C51.9226 149.74 51.8092 150.26 51.8092 150.82C51.8092 151.393 51.9359 151.92 52.1892 152.4C52.4426 152.867 52.7826 153.24 53.2092 153.52C53.6492 153.787 54.1492 153.92 54.7092 153.92C55.2159 153.92 55.7159 153.753 56.2092 153.42C56.7159 153.087 57.0626 152.667 57.2492 152.16ZM66.4198 156.2C65.5265 156.2 64.6732 156.053 63.8598 155.76C63.0465 155.467 62.3465 155.033 61.7598 154.46L62.7198 152.72C63.3465 153.227 63.9598 153.6 64.5598 153.84C65.1598 154.08 65.7465 154.2 66.3198 154.2C66.8398 154.2 67.2532 154.107 67.5598 153.92C67.8798 153.733 68.0398 153.453 68.0398 153.08C68.0398 152.693 67.8465 152.433 67.4598 152.3C67.0732 152.153 66.5332 151.973 65.8398 151.76C65.0665 151.52 64.4198 151.273 63.8998 151.02C63.3798 150.767 62.9865 150.46 62.7198 150.1C62.4665 149.74 62.3398 149.273 62.3398 148.7C62.3398 147.673 62.7265 146.853 63.4998 146.24C64.2732 145.627 65.2998 145.32 66.5798 145.32C67.3265 145.32 68.0332 145.44 68.6998 145.68C69.3665 145.907 69.9732 146.28 70.5198 146.8L69.4398 148.5C68.4132 147.7 67.4198 147.3 66.4598 147.3C66.0332 147.3 65.6532 147.38 65.3198 147.54C64.9998 147.7 64.8398 147.98 64.8398 148.38C64.8398 148.753 64.9932 149.02 65.2998 149.18C65.6198 149.34 66.0998 149.513 66.7398 149.7C67.5665 149.953 68.2665 150.2 68.8398 150.44C69.4265 150.68 69.8665 150.987 70.1598 151.36C70.4665 151.733 70.6198 152.24 70.6198 152.88C70.6198 153.92 70.2398 154.733 69.4798 155.32C68.7198 155.907 67.6998 156.2 66.4198 156.2ZM94.4856 145.52H97.0256L92.6456 156H90.4056L88.6456 151.5L86.9256 156H84.6656L80.3056 145.52H82.8256L85.9456 153.44L87.1656 150.02L85.3456 145.54H87.5656L88.6456 148.74L89.7456 145.54H91.9656L90.1456 150.02L91.3856 153.44L94.4856 145.52ZM102.751 156.2C101.605 156.2 100.618 155.953 99.7914 155.46C98.9781 154.953 98.3514 154.287 97.9114 153.46C97.4714 152.633 97.2514 151.74 97.2514 150.78C97.2514 149.807 97.4714 148.907 97.9114 148.08C98.3647 147.253 98.9981 146.593 99.8114 146.1C100.638 145.593 101.618 145.34 102.751 145.34C103.885 145.34 104.858 145.593 105.671 146.1C106.498 146.593 107.131 147.253 107.571 148.08C108.011 148.907 108.231 149.807 108.231 150.78C108.231 151.74 108.011 152.633 107.571 153.46C107.131 154.287 106.498 154.953 105.671 155.46C104.858 155.953 103.885 156.2 102.751 156.2ZM100.011 150.78C100.011 151.393 100.131 151.94 100.371 152.42C100.611 152.887 100.938 153.253 101.351 153.52C101.765 153.787 102.231 153.92 102.751 153.92C103.258 153.92 103.718 153.787 104.131 153.52C104.545 153.24 104.871 152.867 105.111 152.4C105.365 151.92 105.491 151.373 105.491 150.76C105.491 150.16 105.365 149.627 105.111 149.16C104.871 148.68 104.545 148.307 104.131 148.04C103.718 147.76 103.258 147.62 102.751 147.62C102.231 147.62 101.765 147.76 101.351 148.04C100.938 148.307 100.611 148.68 100.371 149.16C100.131 149.627 100.011 150.167 100.011 150.78ZM119.78 156H117.1V150.12C117.1 149.28 116.954 148.667 116.66 148.28C116.367 147.893 115.96 147.7 115.44 147.7C115.08 147.7 114.714 147.793 114.34 147.98C113.98 148.167 113.654 148.427 113.36 148.76C113.067 149.08 112.854 149.453 112.72 149.88V156H110.04V145.52H112.46V147.46C112.847 146.807 113.407 146.293 114.14 145.92C114.874 145.533 115.7 145.34 116.62 145.34C117.274 145.34 117.807 145.46 118.22 145.7C118.634 145.927 118.954 146.24 119.18 146.64C119.407 147.027 119.56 147.467 119.64 147.96C119.734 148.453 119.78 148.953 119.78 149.46V156Z" fill="#464558"/>
<defs>
<clipPath id="clip0_338_19">
<rect width="49.3854" height="42" fill="white" transform="translate(1228.35 18)"/>
</clipPath>
<clipPath id="clip1_338_19">
<rect width="49.3854" height="40" fill="white" transform="translate(916.401 20)"/>
</clipPath>
<clipPath id="clip2_338_19">
<rect width="40.3147" height="49" fill="white" transform="translate(629 11)"/>
</clipPath>
</defs>
</svg>
